<mxfile host="app.diagrams.net" modified="2022-10-13T07:53:21.404Z" agent="5.0 (Macintosh; Intel Mac OS X 10_15_7) AppleWebKit/537.36 (KHTML, like Gecko) Chrome/105.0.0.0 Safari/537.36" etag="EZ-j47VzABkkvsA0eRiV" version="20.4.0" type="github">
  <diagram id="3228e29e-7158-1315-38df-8450db1d8a1d" name="Page-1">
    <mxGraphModel dx="935" dy="432" grid="0" gridSize="10" guides="1" tooltips="1" connect="1" arrows="1" fold="1" page="1" pageScale="1" pageWidth="600" pageHeight="330" background="#EFF1F3" math="0" shadow="0">
      <root>
        <mxCell id="0" />
        <mxCell id="1" parent="0" />
        <mxCell id="Sud6pk3loR96N63fgRS5-2" value="&lt;font color=&quot;#4a919b&quot; style=&quot;font-size: 20px;&quot;&gt;Game Server&lt;/font&gt;" style="text;html=1;strokeColor=none;fillColor=none;align=center;verticalAlign=middle;whiteSpace=wrap;rounded=0;" parent="1" vertex="1">
          <mxGeometry x="219" y="948" width="141" height="30" as="geometry" />
        </mxCell>
        <mxCell id="Sud6pk3loR96N63fgRS5-13" style="edgeStyle=orthogonalEdgeStyle;orthogonalLoop=1;jettySize=auto;html=1;exitX=0.5;exitY=1;exitDx=0;exitDy=0;fontSize=20;fontColor=#4A919B;fillColor=#FDD276;endArrow=none;endFill=0;strokeWidth=3;dashed=1;rounded=1;strokeColor=#808080;" parent="1" source="Sud6pk3loR96N63fgRS5-3" edge="1">
          <mxGeometry relative="1" as="geometry">
            <mxPoint x="147.5" y="800" as="targetPoint" />
          </mxGeometry>
        </mxCell>
        <mxCell id="Sud6pk3loR96N63fgRS5-3" value="" style="shape=image;verticalLabelPosition=bottom;labelBackgroundColor=default;verticalAlign=top;aspect=fixed;imageAspect=0;image=data:image/svg+xml,PHN2ZyB4bWxuczp4bGluaz0iaHR0cDovL3d3dy53My5vcmcvMTk5OS94bGluayIgeG1sbnM9Imh0dHA6Ly93d3cudzMub3JnLzIwMDAvc3ZnIiBoZWlnaHQ9IjIwMCIgd2lkdGg9IjIwMCIgdmVyc2lvbj0iMS4xIiB2aWV3Qm94PSIwIDAgMTAyNCAxMDI0IiBjbGFzcz0iaWNvbiI+PHBhdGggZmlsbD0iIzRBOTE5QiIgZD0iTTgyMS42IDEwMjBIMjM0LjRjLTI4LjggMC01Mi44LTI0LTUyLjgtNTIuOFY1Ni44YzAtMjguOCAyNC01Mi44IDUyLjgtNTIuOGg1ODhjMjguOCAwIDUyLjggMjQgNTIuOCA1Mi44djkxMC40YzAgMjguOC0yNCA1Mi44LTUzLjYgNTIuOHpNMjM0LjQgMzZjLTExLjIgMC0yMC44IDkuNi0yMC44IDIwLjh2OTEwLjRjMCAxMS4yIDkuNiAyMC44IDIwLjggMjAuOGg1ODhjMTEuMiAwIDIwLjgtOS42IDIwLjgtMjAuOFY1Ni44YzAtMTEuMi05LjYtMjAuOC0yMC44LTIwLjhIMjM0LjR6Ii8+PHBhdGggZmlsbD0iIzRBOTE5QiIgZD0iTTY1OC40IDkwMy4yYy03NiAwLTEzOC40LTYxLjYtMTM4LjQtMTM4LjRzNjEuNi0xMzguNCAxMzguNC0xMzguNGM3NiAwIDEzOC40IDYxLjYgMTM4LjQgMTM4LjRzLTYyLjQgMTM4LjQtMTM4LjQgMTM4LjR6IG0wLTI2MGMtNjcuMiAwLTEyMi40IDU0LjQtMTIyLjQgMTIyLjQgMCA2Ny4yIDU0LjQgMTIyLjQgMTIyLjQgMTIyLjQgNjcuMiAwIDEyMi40LTU0LjQgMTIyLjQtMTIyLjQtMC44LTY4LTU1LjItMTIyLjQtMTIyLjQtMTIyLjR6TTc0OS42IDU0MS42SDMwNi40Yy0yNS42IDAtNDYuNC0yMC44LTQ2LjQtNDYuNFYxMzguNGMwLTI1LjYgMjAuOC00Ni40IDQ2LjQtNDYuNGg0NDIuNGMyNS42IDAgNDYuNCAyMC44IDQ2LjQgNDYuNHYzNTYuOGMwLjggMjUuNi0yMCA0Ni40LTQ1LjYgNDYuNHpNMzA2LjQgMTA4Yy0xNi44IDAtMzAuNCAxMy42LTMwLjQgMzAuNHYzNTYuOGMwIDE2LjggMTMuNiAzMC40IDMwLjQgMzAuNGg0NDIuNGMxNi44IDAgMzAuNC0xMy42IDMwLjQtMzAuNFYxMzguNGMwLTE2LjgtMTMuNi0zMC40LTMwLjQtMzAuNEgzMDYuNHpNNDEyIDc1NmMtMzAuNCAwLTU1LjItMjQuOC01NS4yLTU1LjIgMC0zMC40IDI0LjgtNTUuMiA1NS4yLTU1LjIgMzAuNCAwIDU1LjIgMjQuOCA1NS4yIDU1LjIgMCAzMC40LTI0LjggNTUuMi01NS4yIDU1LjJ6IG0wLTk0LjRjLTIxLjYgMC0zOS4yIDE3LjYtMzkuMiAzOS4yczE3LjYgMzkuMiAzOS4yIDM5LjIgMzkuMi0xNy42IDM5LjItMzkuMi0xNy42LTM5LjItMzkuMi0zOS4yek0zMTUuMiA4ODQuOGMtMzAuNCAwLTU1LjItMjQuOC01NS4yLTU1LjIgMC0zMC40IDI0LjgtNTUuMiA1NS4yLTU1LjIgMzAuNCAwIDU1LjIgMjQuOCA1NS4yIDU1LjIgMC44IDMwLjQtMjQuOCA1NS4yLTU1LjIgNTUuMnogbTAtOTUuMmMtMjEuNiAwLTM5LjIgMTcuNi0zOS4yIDM5LjJzMTcuNiAzOS4yIDM5LjIgMzkuMiAzOS4yLTE3LjYgMzkuMi0zOS4yYzAuOC0yMS42LTE3LjYtMzkuMi0zOS4yLTM5LjJ6Ii8+PHBhdGggZmlsbD0iIzRBOTE5QiIgZD0iTTczMS4yIDc3Mi44SDU4NC44Yy00LjggMC04LTMuMi04LThzMy4yLTggOC04aDE0NS42YzQuOCAwIDggMy4yIDggOCAwLjggNC44LTMuMiA4LTcuMiA4eiIvPjxwYXRoIGZpbGw9IiM0QTkxOUIiIGQ9Ik02NTguNCA4NDUuNmMtNC44IDAtOC00LTgtOGwwLjgtMTQ1LjZjMC00LjggMy4yLTggOC04czggNCA4IDhsLTAuOCAxNDUuNmMwIDQuOC00IDgtOCA4eiIvPjwvc3ZnPg==;" parent="1" vertex="1">
          <mxGeometry x="39" y="672" width="50" height="50" as="geometry" />
        </mxCell>
        <mxCell id="Sud6pk3loR96N63fgRS5-14" style="edgeStyle=orthogonalEdgeStyle;orthogonalLoop=1;jettySize=auto;html=1;exitX=0.5;exitY=1;exitDx=0;exitDy=0;fontSize=20;fontColor=#4A919B;fillColor=#FDD276;endArrow=none;endFill=0;strokeWidth=3;dashed=1;rounded=1;strokeColor=#808080;" parent="1" source="Sud6pk3loR96N63fgRS5-4" edge="1">
          <mxGeometry relative="1" as="geometry">
            <mxPoint x="147.5" y="800" as="targetPoint" />
          </mxGeometry>
        </mxCell>
        <mxCell id="Sud6pk3loR96N63fgRS5-4" value="" style="shape=image;verticalLabelPosition=bottom;labelBackgroundColor=default;verticalAlign=top;aspect=fixed;imageAspect=0;image=data:image/svg+xml,PHN2ZyB4bWxuczp4bGluaz0iaHR0cDovL3d3dy53My5vcmcvMTk5OS94bGluayIgeG1sbnM9Imh0dHA6Ly93d3cudzMub3JnLzIwMDAvc3ZnIiBoZWlnaHQ9IjIwMCIgd2lkdGg9IjIwMCIgdmVyc2lvbj0iMS4xIiB2aWV3Qm94PSIwIDAgMTAyNCAxMDI0IiBjbGFzcz0iaWNvbiI+PHBhdGggZmlsbD0iIzRBOTE5QiIgZD0iTTgyMS42IDEwMjBIMjM0LjRjLTI4LjggMC01Mi44LTI0LTUyLjgtNTIuOFY1Ni44YzAtMjguOCAyNC01Mi44IDUyLjgtNTIuOGg1ODhjMjguOCAwIDUyLjggMjQgNTIuOCA1Mi44djkxMC40YzAgMjguOC0yNCA1Mi44LTUzLjYgNTIuOHpNMjM0LjQgMzZjLTExLjIgMC0yMC44IDkuNi0yMC44IDIwLjh2OTEwLjRjMCAxMS4yIDkuNiAyMC44IDIwLjggMjAuOGg1ODhjMTEuMiAwIDIwLjgtOS42IDIwLjgtMjAuOFY1Ni44YzAtMTEuMi05LjYtMjAuOC0yMC44LTIwLjhIMjM0LjR6Ii8+PHBhdGggZmlsbD0iIzRBOTE5QiIgZD0iTTY1OC40IDkwMy4yYy03NiAwLTEzOC40LTYxLjYtMTM4LjQtMTM4LjRzNjEuNi0xMzguNCAxMzguNC0xMzguNGM3NiAwIDEzOC40IDYxLjYgMTM4LjQgMTM4LjRzLTYyLjQgMTM4LjQtMTM4LjQgMTM4LjR6IG0wLTI2MGMtNjcuMiAwLTEyMi40IDU0LjQtMTIyLjQgMTIyLjQgMCA2Ny4yIDU0LjQgMTIyLjQgMTIyLjQgMTIyLjQgNjcuMiAwIDEyMi40LTU0LjQgMTIyLjQtMTIyLjQtMC44LTY4LTU1LjItMTIyLjQtMTIyLjQtMTIyLjR6TTc0OS42IDU0MS42SDMwNi40Yy0yNS42IDAtNDYuNC0yMC44LTQ2LjQtNDYuNFYxMzguNGMwLTI1LjYgMjAuOC00Ni40IDQ2LjQtNDYuNGg0NDIuNGMyNS42IDAgNDYuNCAyMC44IDQ2LjQgNDYuNHYzNTYuOGMwLjggMjUuNi0yMCA0Ni40LTQ1LjYgNDYuNHpNMzA2LjQgMTA4Yy0xNi44IDAtMzAuNCAxMy42LTMwLjQgMzAuNHYzNTYuOGMwIDE2LjggMTMuNiAzMC40IDMwLjQgMzAuNGg0NDIuNGMxNi44IDAgMzAuNC0xMy42IDMwLjQtMzAuNFYxMzguNGMwLTE2LjgtMTMuNi0zMC40LTMwLjQtMzAuNEgzMDYuNHpNNDEyIDc1NmMtMzAuNCAwLTU1LjItMjQuOC01NS4yLTU1LjIgMC0zMC40IDI0LjgtNTUuMiA1NS4yLTU1LjIgMzAuNCAwIDU1LjIgMjQuOCA1NS4yIDU1LjIgMCAzMC40LTI0LjggNTUuMi01NS4yIDU1LjJ6IG0wLTk0LjRjLTIxLjYgMC0zOS4yIDE3LjYtMzkuMiAzOS4yczE3LjYgMzkuMiAzOS4yIDM5LjIgMzkuMi0xNy42IDM5LjItMzkuMi0xNy42LTM5LjItMzkuMi0zOS4yek0zMTUuMiA4ODQuOGMtMzAuNCAwLTU1LjItMjQuOC01NS4yLTU1LjIgMC0zMC40IDI0LjgtNTUuMiA1NS4yLTU1LjIgMzAuNCAwIDU1LjIgMjQuOCA1NS4yIDU1LjIgMC44IDMwLjQtMjQuOCA1NS4yLTU1LjIgNTUuMnogbTAtOTUuMmMtMjEuNiAwLTM5LjIgMTcuNi0zOS4yIDM5LjJzMTcuNiAzOS4yIDM5LjIgMzkuMiAzOS4yLTE3LjYgMzkuMi0zOS4yYzAuOC0yMS42LTE3LjYtMzkuMi0zOS4yLTM5LjJ6Ii8+PHBhdGggZmlsbD0iIzRBOTE5QiIgZD0iTTczMS4yIDc3Mi44SDU4NC44Yy00LjggMC04LTMuMi04LThzMy4yLTggOC04aDE0NS42YzQuOCAwIDggMy4yIDggOCAwLjggNC44LTMuMiA4LTcuMiA4eiIvPjxwYXRoIGZpbGw9IiM0QTkxOUIiIGQ9Ik02NTguNCA4NDUuNmMtNC44IDAtOC00LTgtOGwwLjgtMTQ1LjZjMC00LjggMy4yLTggOC04czggNCA4IDhsLTAuOCAxNDUuNmMwIDQuOC00IDgtOCA4eiIvPjwvc3ZnPg==;" parent="1" vertex="1">
          <mxGeometry x="97" y="672" width="50" height="50" as="geometry" />
        </mxCell>
        <mxCell id="Sud6pk3loR96N63fgRS5-15" style="edgeStyle=orthogonalEdgeStyle;orthogonalLoop=1;jettySize=auto;html=1;exitX=0.5;exitY=1;exitDx=0;exitDy=0;fontSize=20;fontColor=#4A919B;fillColor=#FDD276;endArrow=none;endFill=0;strokeWidth=3;dashed=1;rounded=1;strokeColor=#808080;" parent="1" source="Sud6pk3loR96N63fgRS5-5" edge="1">
          <mxGeometry relative="1" as="geometry">
            <mxPoint x="147.5" y="800" as="targetPoint" />
          </mxGeometry>
        </mxCell>
        <mxCell id="Sud6pk3loR96N63fgRS5-5" value="" style="shape=image;verticalLabelPosition=bottom;labelBackgroundColor=default;verticalAlign=top;aspect=fixed;imageAspect=0;image=data:image/svg+xml,PHN2ZyB4bWxuczp4bGluaz0iaHR0cDovL3d3dy53My5vcmcvMTk5OS94bGluayIgeG1sbnM9Imh0dHA6Ly93d3cudzMub3JnLzIwMDAvc3ZnIiBoZWlnaHQ9IjIwMCIgd2lkdGg9IjIwMCIgdmVyc2lvbj0iMS4xIiB2aWV3Qm94PSIwIDAgMTAyNCAxMDI0IiBjbGFzcz0iaWNvbiI+PHBhdGggZmlsbD0iIzRBOTE5QiIgZD0iTTgyMS42IDEwMjBIMjM0LjRjLTI4LjggMC01Mi44LTI0LTUyLjgtNTIuOFY1Ni44YzAtMjguOCAyNC01Mi44IDUyLjgtNTIuOGg1ODhjMjguOCAwIDUyLjggMjQgNTIuOCA1Mi44djkxMC40YzAgMjguOC0yNCA1Mi44LTUzLjYgNTIuOHpNMjM0LjQgMzZjLTExLjIgMC0yMC44IDkuNi0yMC44IDIwLjh2OTEwLjRjMCAxMS4yIDkuNiAyMC44IDIwLjggMjAuOGg1ODhjMTEuMiAwIDIwLjgtOS42IDIwLjgtMjAuOFY1Ni44YzAtMTEuMi05LjYtMjAuOC0yMC44LTIwLjhIMjM0LjR6Ii8+PHBhdGggZmlsbD0iIzRBOTE5QiIgZD0iTTY1OC40IDkwMy4yYy03NiAwLTEzOC40LTYxLjYtMTM4LjQtMTM4LjRzNjEuNi0xMzguNCAxMzguNC0xMzguNGM3NiAwIDEzOC40IDYxLjYgMTM4LjQgMTM4LjRzLTYyLjQgMTM4LjQtMTM4LjQgMTM4LjR6IG0wLTI2MGMtNjcuMiAwLTEyMi40IDU0LjQtMTIyLjQgMTIyLjQgMCA2Ny4yIDU0LjQgMTIyLjQgMTIyLjQgMTIyLjQgNjcuMiAwIDEyMi40LTU0LjQgMTIyLjQtMTIyLjQtMC44LTY4LTU1LjItMTIyLjQtMTIyLjQtMTIyLjR6TTc0OS42IDU0MS42SDMwNi40Yy0yNS42IDAtNDYuNC0yMC44LTQ2LjQtNDYuNFYxMzguNGMwLTI1LjYgMjAuOC00Ni40IDQ2LjQtNDYuNGg0NDIuNGMyNS42IDAgNDYuNCAyMC44IDQ2LjQgNDYuNHYzNTYuOGMwLjggMjUuNi0yMCA0Ni40LTQ1LjYgNDYuNHpNMzA2LjQgMTA4Yy0xNi44IDAtMzAuNCAxMy42LTMwLjQgMzAuNHYzNTYuOGMwIDE2LjggMTMuNiAzMC40IDMwLjQgMzAuNGg0NDIuNGMxNi44IDAgMzAuNC0xMy42IDMwLjQtMzAuNFYxMzguNGMwLTE2LjgtMTMuNi0zMC40LTMwLjQtMzAuNEgzMDYuNHpNNDEyIDc1NmMtMzAuNCAwLTU1LjItMjQuOC01NS4yLTU1LjIgMC0zMC40IDI0LjgtNTUuMiA1NS4yLTU1LjIgMzAuNCAwIDU1LjIgMjQuOCA1NS4yIDU1LjIgMCAzMC40LTI0LjggNTUuMi01NS4yIDU1LjJ6IG0wLTk0LjRjLTIxLjYgMC0zOS4yIDE3LjYtMzkuMiAzOS4yczE3LjYgMzkuMiAzOS4yIDM5LjIgMzkuMi0xNy42IDM5LjItMzkuMi0xNy42LTM5LjItMzkuMi0zOS4yek0zMTUuMiA4ODQuOGMtMzAuNCAwLTU1LjItMjQuOC01NS4yLTU1LjIgMC0zMC40IDI0LjgtNTUuMiA1NS4yLTU1LjIgMzAuNCAwIDU1LjIgMjQuOCA1NS4yIDU1LjIgMC44IDMwLjQtMjQuOCA1NS4yLTU1LjIgNTUuMnogbTAtOTUuMmMtMjEuNiAwLTM5LjIgMTcuNi0zOS4yIDM5LjJzMTcuNiAzOS4yIDM5LjIgMzkuMiAzOS4yLTE3LjYgMzkuMi0zOS4yYzAuOC0yMS42LTE3LjYtMzkuMi0zOS4yLTM5LjJ6Ii8+PHBhdGggZmlsbD0iIzRBOTE5QiIgZD0iTTczMS4yIDc3Mi44SDU4NC44Yy00LjggMC04LTMuMi04LThzMy4yLTggOC04aDE0NS42YzQuOCAwIDggMy4yIDggOCAwLjggNC44LTMuMiA4LTcuMiA4eiIvPjxwYXRoIGZpbGw9IiM0QTkxOUIiIGQ9Ik02NTguNCA4NDUuNmMtNC44IDAtOC00LTgtOGwwLjgtMTQ1LjZjMC00LjggMy4yLTggOC04czggNCA4IDhsLTAuOCAxNDUuNmMwIDQuOC00IDgtOCA4eiIvPjwvc3ZnPg==;" parent="1" vertex="1">
          <mxGeometry x="155" y="672" width="50" height="50" as="geometry" />
        </mxCell>
        <mxCell id="Sud6pk3loR96N63fgRS5-16" style="edgeStyle=orthogonalEdgeStyle;orthogonalLoop=1;jettySize=auto;html=1;exitX=0.5;exitY=1;exitDx=0;exitDy=0;entryX=0.5;entryY=0;entryDx=0;entryDy=0;fontSize=20;fontColor=#4A919B;fillColor=#FDD276;endArrow=none;endFill=0;strokeWidth=3;dashed=1;rounded=1;strokeColor=#808080;" parent="1" source="Sud6pk3loR96N63fgRS5-6" edge="1">
          <mxGeometry relative="1" as="geometry">
            <mxPoint x="147.5" y="800" as="targetPoint" />
          </mxGeometry>
        </mxCell>
        <mxCell id="Sud6pk3loR96N63fgRS5-6" value="" style="shape=image;verticalLabelPosition=bottom;labelBackgroundColor=default;verticalAlign=top;aspect=fixed;imageAspect=0;image=data:image/svg+xml,PHN2ZyB4bWxuczp4bGluaz0iaHR0cDovL3d3dy53My5vcmcvMTk5OS94bGluayIgeG1sbnM9Imh0dHA6Ly93d3cudzMub3JnLzIwMDAvc3ZnIiBoZWlnaHQ9IjIwMCIgd2lkdGg9IjIwMCIgdmVyc2lvbj0iMS4xIiB2aWV3Qm94PSIwIDAgMTAyNCAxMDI0IiBjbGFzcz0iaWNvbiI+PHBhdGggZmlsbD0iIzRBOTE5QiIgZD0iTTgyMS42IDEwMjBIMjM0LjRjLTI4LjggMC01Mi44LTI0LTUyLjgtNTIuOFY1Ni44YzAtMjguOCAyNC01Mi44IDUyLjgtNTIuOGg1ODhjMjguOCAwIDUyLjggMjQgNTIuOCA1Mi44djkxMC40YzAgMjguOC0yNCA1Mi44LTUzLjYgNTIuOHpNMjM0LjQgMzZjLTExLjIgMC0yMC44IDkuNi0yMC44IDIwLjh2OTEwLjRjMCAxMS4yIDkuNiAyMC44IDIwLjggMjAuOGg1ODhjMTEuMiAwIDIwLjgtOS42IDIwLjgtMjAuOFY1Ni44YzAtMTEuMi05LjYtMjAuOC0yMC44LTIwLjhIMjM0LjR6Ii8+PHBhdGggZmlsbD0iIzRBOTE5QiIgZD0iTTY1OC40IDkwMy4yYy03NiAwLTEzOC40LTYxLjYtMTM4LjQtMTM4LjRzNjEuNi0xMzguNCAxMzguNC0xMzguNGM3NiAwIDEzOC40IDYxLjYgMTM4LjQgMTM4LjRzLTYyLjQgMTM4LjQtMTM4LjQgMTM4LjR6IG0wLTI2MGMtNjcuMiAwLTEyMi40IDU0LjQtMTIyLjQgMTIyLjQgMCA2Ny4yIDU0LjQgMTIyLjQgMTIyLjQgMTIyLjQgNjcuMiAwIDEyMi40LTU0LjQgMTIyLjQtMTIyLjQtMC44LTY4LTU1LjItMTIyLjQtMTIyLjQtMTIyLjR6TTc0OS42IDU0MS42SDMwNi40Yy0yNS42IDAtNDYuNC0yMC44LTQ2LjQtNDYuNFYxMzguNGMwLTI1LjYgMjAuOC00Ni40IDQ2LjQtNDYuNGg0NDIuNGMyNS42IDAgNDYuNCAyMC44IDQ2LjQgNDYuNHYzNTYuOGMwLjggMjUuNi0yMCA0Ni40LTQ1LjYgNDYuNHpNMzA2LjQgMTA4Yy0xNi44IDAtMzAuNCAxMy42LTMwLjQgMzAuNHYzNTYuOGMwIDE2LjggMTMuNiAzMC40IDMwLjQgMzAuNGg0NDIuNGMxNi44IDAgMzAuNC0xMy42IDMwLjQtMzAuNFYxMzguNGMwLTE2LjgtMTMuNi0zMC40LTMwLjQtMzAuNEgzMDYuNHpNNDEyIDc1NmMtMzAuNCAwLTU1LjItMjQuOC01NS4yLTU1LjIgMC0zMC40IDI0LjgtNTUuMiA1NS4yLTU1LjIgMzAuNCAwIDU1LjIgMjQuOCA1NS4yIDU1LjIgMCAzMC40LTI0LjggNTUuMi01NS4yIDU1LjJ6IG0wLTk0LjRjLTIxLjYgMC0zOS4yIDE3LjYtMzkuMiAzOS4yczE3LjYgMzkuMiAzOS4yIDM5LjIgMzkuMi0xNy42IDM5LjItMzkuMi0xNy42LTM5LjItMzkuMi0zOS4yek0zMTUuMiA4ODQuOGMtMzAuNCAwLTU1LjItMjQuOC01NS4yLTU1LjIgMC0zMC40IDI0LjgtNTUuMiA1NS4yLTU1LjIgMzAuNCAwIDU1LjIgMjQuOCA1NS4yIDU1LjIgMC44IDMwLjQtMjQuOCA1NS4yLTU1LjIgNTUuMnogbTAtOTUuMmMtMjEuNiAwLTM5LjIgMTcuNi0zOS4yIDM5LjJzMTcuNiAzOS4yIDM5LjIgMzkuMiAzOS4yLTE3LjYgMzkuMi0zOS4yYzAuOC0yMS42LTE3LjYtMzkuMi0zOS4yLTM5LjJ6Ii8+PHBhdGggZmlsbD0iIzRBOTE5QiIgZD0iTTczMS4yIDc3Mi44SDU4NC44Yy00LjggMC04LTMuMi04LThzMy4yLTggOC04aDE0NS42YzQuOCAwIDggMy4yIDggOCAwLjggNC44LTMuMiA4LTcuMiA4eiIvPjxwYXRoIGZpbGw9IiM0QTkxOUIiIGQ9Ik02NTguNCA4NDUuNmMtNC44IDAtOC00LTgtOGwwLjgtMTQ1LjZjMC00LjggMy4yLTggOC04czggNCA4IDhsLTAuOCAxNDUuNmMwIDQuOC00IDgtOCA4eiIvPjwvc3ZnPg==;" parent="1" vertex="1">
          <mxGeometry x="213" y="672" width="50" height="50" as="geometry" />
        </mxCell>
        <mxCell id="BNeBFmw1EoEEX6mTBFbo-15" style="edgeStyle=orthogonalEdgeStyle;rounded=1;orthogonalLoop=1;jettySize=auto;html=1;exitX=0.5;exitY=1;exitDx=0;exitDy=0;entryX=0;entryY=0.5;entryDx=0;entryDy=0;endArrow=none;endFill=0;strokeWidth=3;dashed=1;strokeColor=#808080;" edge="1" parent="1" source="BNeBFmw1EoEEX6mTBFbo-1" target="BNeBFmw1EoEEX6mTBFbo-4">
          <mxGeometry relative="1" as="geometry" />
        </mxCell>
        <mxCell id="BNeBFmw1EoEEX6mTBFbo-1" value="" style="shape=image;verticalLabelPosition=bottom;verticalAlign=top;imageAspect=0;aspect=fixed;image=data:image/svg+xml,PHN2ZyB4bWxuczp4bGluaz0iaHR0cDovL3d3dy53My5vcmcvMTk5OS94bGluayIgeG1sbnM9Imh0dHA6Ly93d3cudzMub3JnLzIwMDAvc3ZnIiBoZWlnaHQ9IjIwMCIgd2lkdGg9IjIwMCIgdmVyc2lvbj0iMS4xIiB2aWV3Qm94PSIwIDAgMTAyNCAxMDI0IiBjbGFzcz0iaWNvbiI+PHBhdGggZmlsbD0iIzRBOTE5QiIgZD0iTTY5OC44IDMzMGM0Ny42IDQ3LjYgODcuMiA5OC40IDExOCAxNDkuNmwyMi40LTM0Yy0zMC44LTQ4LjgtNjguOC05Ni44LTExNC0xNDJDNTY2LjggMTQ1LjIgMzcxLjYgNzIgMjQwIDEwOS42bDMwLjQgMzAuNGMxMTcuMi0yMiAyODcuMiA0OS4yIDQyOC40IDE5MHogbTYwLjgtMTkyLjhsMzAuOC0zMC44Yy02Ny4yLTE5LjItMTUwLjQtMTAtMjM3LjIgMjQuNGw0MCAyNC40YzYwLjgtMjAuNCAxMTgtMjcuMiAxNjYuNC0xOHogbS01MjQgMTAwLjRjMjkuMi0yOS4yIDI5LjItNzYuOCAwLTEwNi0yOS4yLTI5LjItNzYuOC0yOS4yLTEwNiAwLTI5LjIgMjkuMi0yOS4yIDc2LjggMCAxMDYgMjkuMiAyOS4yIDc2LjggMjkuMiAxMDYgMHpNMTUxLjIgMTU1LjZhMzcuOTA0IDM3LjkwNCAwIDEgMSA1My42IDUzLjYwOEEzNy45MDQgMzcuOTA0IDAgMCAxIDE1MS4yIDE1NS42eiBtNDI2IDY4OS4yYzUwLjgtMzEuMiAxMDEuMi03MC44IDE0OC0xMTcuNiAxNTguNC0xNTguNCAyMzEuNi0zNTMuNiAxOTQtNDg1LjJsLTMwLjQgMzAuNGMyMiAxMTcuMi00OC44IDI4Ny4yLTE5MCA0MjguNC00OS4yIDQ5LjItMTAyIDkwLTE1NC44IDEyMS4ybDMzLjIgMjIuOHogbTIxNC02MDcuMmMyOS4yIDI5LjIgNzYuOCAyOS4yIDEwNiAwIDI5LjItMjkuMiAyOS4yLTc2LjggMC0xMDYtMjkuMi0yOS4yLTc2LjgtMjkuMi0xMDYgMC0yOS4yIDI5LjItMjkuMiA3Ni44IDAgMTA2eiBtMzAuOC04MmEzNy45MDQgMzcuOTA0IDAgMSAxIDUzLjYgNTMuNjA4QTM3LjkwNCAzNy45MDQgMCAwIDEgODIyIDE1NS42eiBtNDggNDM1LjZjMjEuMiA2MC44IDI4IDExOC44IDE4LjggMTY3LjJsMzAuNCAzMC40YzE5LjItNjYuNCA5LjYtMTQ5LjItMjQuOC0yMzUuNmwtMjQuNCAzOHpNMjcwLjQgODkwLjhsLTMwLjQgMzAuNGM2NS42IDE4LjggMTQ3LjIgMTAgMjMyLjQtMjMuMmwtMzYuNC0yNS4yYy02MC40IDIwLjQtMTE3LjIgMjcuMi0xNjUuNiAxOHpNMzI4IDcwMC44Yy00OC40LTQ4LjQtODguNC0xMDAtMTE5LjItMTUxLjZsLTIxLjIgMzYuNGMzMC44IDQ4LjggNjguOCA5Ni44IDExNCAxNDEuNiAxNTguNCAxNTguNCAzNTMuNiAyMzEuNiA0ODUuMiAxOTRsLTMwLjQtMzAuNGMtMTE3LjIgMjItMjg3LjItNDguOC00MjguNC0xOTB6IG0tMTcyLjgtMjY2Yy0yMC01OS4yLTI2LTExNS4yLTE3LjItMTYyLjRsLTMwLjQtMzAuNGMtMTguOCA2Ni0xMCAxNDguNCAyNCAyMzMuNmwyMy42LTQwLjh6IG02MzYgMzU4LjRjLTI5LjIgMjkuMi0yOS4yIDc2LjggMCAxMDYgMjkuMiAyOS4yIDc2LjggMjkuMiAxMDYgMCAyOS4yLTI5LjIgMjkuMi03Ni44IDAtMTA2LTI5LjItMjkuMi03Ni40LTI5LjItMTA2IDB6IG04NC40IDg2LjhhMzcuOTA0IDM3LjkwNCAwIDEgMS01My42LTUzLjYwOEEzNy45MDQgMzcuOTA0IDAgMCAxIDg3NS42IDg4MHogbS02NDAtODYuOGMtMjkuMi0yOS4yLTc2LjgtMjkuMi0xMDYgMC0yOS4yIDI5LjItMjkuMiA3Ni44IDAgMTA2IDI5LjIgMjkuMiA3Ni44IDI5LjIgMTA2IDAgMjkuMi0yOS4yIDI5LjItNzYuNCAwLTEwNnpNMjA0LjggODgwYTM3LjkwNCAzNy45MDQgMCAxIDEtNTMuNi01My42MDhBMzcuOTA0IDM3LjkwNCAwIDAgMSAyMDQuOCA4ODB6IG0tNjYuOC0xMjEuNkMxMTYgNjQxLjIgMTg3LjIgNDcxLjIgMzI4IDMzMGM0Ny4yLTQ3LjIgOTcuNi04Ni40IDE0OC0xMTcuMmwtMzUuMi0yMS42Yy00Ny42IDMwLjQtOTQuOCA2OC0xMzkuMiAxMTItMTU4LjQgMTU4LjQtMjMxLjYgMzUzLjYtMTk0IDQ4NS4ybDMwLjQtMzB6IG0zMjAuOC05NC40YzkuMiAwIDE2LjQtNy4yIDE2LjQtMTYuNFYzODQuOGMwLTYuOC00LTEyLjgtMTAuNC0xNS4yLTYtMi40LTEzLjItMS4yLTE4IDMuNmwtOTMuMiA5NS42Yy02LjQgNi40LTYuNCAxNi44IDAuNCAyMy4yIDYuNCA2LjQgMTYuOCA2IDIzLjItMC40bDY1LjItNjYuOHYyMjIuNGMwIDkuNiA3LjIgMTYuOCAxNi40IDE2Ljh6TTU2OCAzNzEuNmMtOS4yIDAtMTYuNCA3LjItMTYuNCAxNi40djI2Mi44YzAgNi44IDQgMTIuOCAxMCAxNS4yIDIgMC44IDQgMS4yIDYgMS4yIDQuNCAwIDguNC0xLjYgMTEuNi00LjhsOTMuMi05NS42YzYuNC02LjQgNi40LTE2LjgtMC40LTIzLjItNi40LTYuNC0xNi44LTYtMjMuMiAwLjRsLTY1LjIgNjYuOFYzODcuNmMwLjgtOC44LTYuNC0xNi0xNS42LTE2eiBtMCAwIi8+PHBhdGggZmlsbD0iIzRBOTE5QiIgZD0iTTcxMi44IDkzNC44Yy0xMjggMC0yODQuOC03Ni00MTQtMjA0LjgtNDQuNC00NC40LTgyLjgtOTItMTE0LjQtMTQyLjRsLTEuMi0yIDI1LjYtNDQuNCAzLjYgNmMzMiA1My4yIDcxLjYgMTA0IDExOC44IDE1MC44IDEzNS4yIDEzNS4yIDMwNiAyMTEuMiA0MjQuOCAxODguOGwyLTAuNCAzNi44IDM2LjgtNi40IDJjLTI0IDYuNC00OS4yIDkuNi03NS42IDkuNnpNMTkyLjQgNTg1LjJjMzEuMiA0OS4yIDY4LjggOTYgMTEyIDEzOS4yIDE1MS4yIDE1MS4yIDM0MC44IDIyOC44IDQ3NC40IDE5NC44bC0yNC0yNGMtNTguOCAxMC40LTEyOS42LTEuNi0yMDUuNi0zNC40LTc4LTM0LTE1NS42LTg4LjQtMjI0LjQtMTU3LjItNDUuNi00NS42LTg0LjgtOTUuMi0xMTYuNC0xNDYuOGwtMTYgMjguNHogbTEyMS42IDM0OS42Yy0yNi44IDAtNTEuNi0zLjItNzUuMi0xMGwtNi40LTIgMzYuOC0zNi44IDIgMC40YzQ2LjggOC44IDEwMy4yIDIuNCAxNjMuNi0xOC40bDItMC44IDQ0IDMwLjgtNi44IDIuOGMtNTYuOCAyMi44LTExMC44IDM0LTE2MCAzNHogbS02Ni40LTE1LjZjNjEuNiAxNS42IDEzNiA4IDIxNi0yMi40bC0yOC40LTIwYy02MCAyMC40LTExNi40IDI2LjgtMTYzLjYgMTguNGwtMjQgMjR6IG0tNjUuMiA2Yy0yMS4yIDAtNDAuOC04LjQtNTUuNi0yMy4yLTE0LjgtMTQuOC0yMy4yLTM0LjgtMjMuMi01NS42IDAtMjEuMiA4LjQtNDAuOCAyMy4yLTU1LjYgMTQuOC0xNC44IDM0LjgtMjMuMiA1NS42LTIzLjIgMjEuMiAwIDQwLjggOC40IDU1LjYgMjMuMiAxNC44IDE0LjggMjMuMiAzNC44IDIzLjIgNTUuNiAwIDIxLjItOC40IDQwLjgtMjMuMiA1NS42LTE0LjQgMTQuOC0zNC40IDIzLjItNTUuNiAyMy4yeiBtMC0xNDkuNmMtMTguOCAwLTM2LjggNy4yLTUwIDIwLjgtMTMuMiAxMy4yLTIwLjggMzEuMi0yMC44IDUwczcuMiAzNi44IDIwLjggNTBjMTMuMiAxMy4yIDMxLjIgMjAuOCA1MCAyMC44czM2LjgtNy4yIDUwLTIwLjhjMTMuMi0xMy4yIDIwLjgtMzEuMiAyMC44LTUwcy03LjItMzYuOC0yMC44LTUwYy0xMy4yLTEzLjYtMzAuOC0yMC44LTUwLTIwLjh6IG02NjIgMTQ5LjZjLTIwIDAtNDAuNC03LjYtNTUuNi0yMy4yLTMwLjgtMzAuOC0zMC44LTgwLjggMC0xMTEuNiAzMC44LTMwLjggODAuOC0zMC44IDExMS42IDAgMzAuOCAzMC44IDMwLjggODAuOCAwIDExMS42LTE1LjYgMTUuNi0zNiAyMy4yLTU2IDIzLjJ6TTc5NC40IDc5NmMtMjcuNiAyNy42LTI3LjYgNzIuNCAwIDEwMC40IDI3LjYgMjcuNiA3Mi40IDI3LjYgMTAwLjQgMCAyNy42LTI3LjYgMjcuNi03Mi40IDAtMTAwLjQtMjgtMjcuNi03Mi44LTI3LjYtMTAwLjQgMHpNMTc4IDg5NS4yYy0xMS4yIDAtMjEuNi00LjQtMjkuNi0xMi40cy0xMi40LTE4LjQtMTIuNC0yOS42YzAtMTEuMiA0LjQtMjEuNiAxMi40LTI5LjZzMTguNC0xMi40IDI5LjYtMTIuNGMxMS4yIDAgMjEuNiA0LjQgMjkuNiAxMi40czEyLjQgMTguNCAxMi40IDI5LjZjMCAxMS4yLTQuNCAyMS42LTEyLjQgMjkuNnMtMTguNCAxMi40LTI5LjYgMTIuNHogbTAtNzZjLTkuMiAwLTE3LjYgMy42LTI0IDEwLTYuNCA2LjQtMTAgMTQuOC0xMCAyNHMzLjYgMTcuNiAxMCAyNGM2LjQgNi40IDE0LjggMTAgMjQgMTBzMTcuNi0zLjYgMjQtMTBjNi40LTYuNCAxMC0xNC44IDEwLTI0cy0zLjYtMTcuNi0xMC0yNGMtNi40LTYuNC0xNC44LTEwLTI0LTEweiBtNjcwLjggNzZjLTExLjIgMC0yMS42LTQuNC0yOS42LTEyLjRzLTEyLjQtMTguNC0xMi40LTI5LjZjMC0xMS4yIDQuNC0yMS42IDEyLjQtMjkuNnMxOC40LTEyLjQgMjkuNi0xMi40YzExLjIgMCAyMS42IDQuNCAyOS42IDEyLjRzMTIuNCAxOC40IDEyLjQgMjkuNmMwIDExLjItNC40IDIxLjYtMTIuNCAyOS42LTcuNiA4LTE4LjQgMTIuNC0yOS42IDEyLjR6IG0wLTc2Yy05LjIgMC0xNy42IDMuNi0yNCAxMC02LjQgNi40LTEwIDE0LjgtMTAgMjRzMy42IDE3LjYgMTAgMjRjNi40IDYuNCAxNC44IDEwIDI0IDEwczE3LjYtMy42IDI0LTEwYzYuNC02LjQgMTAtMTQuOCAxMC0yNHMtMy42LTE3LjYtMTAtMjRjLTYuNC02LjQtMTQuOC0xMC0yNC0xMHogbS0yNzEuNiAzMC40bC00MC40LTI4LjQgNS4yLTMuMmM1NC40LTMyIDEwNi03Mi40IDE1NC0xMjAuNCAxMzUuMi0xMzUuMiAyMTEuMi0zMDYgMTg4LjgtNDI0LjhsLTAuNC0yIDM2LjgtMzYuOCAyIDYuNGMzOS4yIDEzNi44LTM5LjIgMzMzLjItMTk0LjggNDg5LjItNDYgNDYtOTYgODYtMTQ4LjggMTE4LjRsLTIuNCAxLjZ6IG0tMjUuNi0yNy42bDI2IDE4YzUxLjItMzEuNiAxMDAtNzAuOCAxNDUuMi0xMTUuNiAxNTEuMi0xNTEuMiAyMjguOC0zNDAuOCAxOTQuOC00NzQuNGwtMjQgMjRjMjEuNiAxMjEuMi01NS4yIDI5My4yLTE5MS42IDQyOS42LTQ3LjIgNDYuOC05Ny42IDg2LjQtMTUwLjQgMTE4LjR6IG0zNjkuNi0yNS42bC0zNi44LTM2LjggMC40LTJjOC44LTQ3LjIgMi40LTEwNC40LTE4LjgtMTY1LjJsLTAuOC0yIDMwLTQ1LjYgMi44IDcuMmMzNS42IDg4LjggNDQgMTcxLjIgMjQuOCAyMzhsLTEuNiA2LjR6IG0tMjgtMzkuMmwyNCAyNGMxNS42LTYxLjYgNy4yLTEzOC44LTIzLjYtMjE5LjJsLTE5LjIgMjkuNmMyMC44IDYwLjQgMjcuMiAxMTcuNiAxOC44IDE2NS42eiBtLTc4Ny42IDM5LjJsLTItNi40Yy0zOS4yLTEzNi44IDM5LjItMzMzLjIgMTk1LjItNDg5LjIgNDMuNi00My42IDkwLjQtODEuMiAxNDAtMTEyLjhsMi0xLjIgNDMuMiAyNi40LTUuNiAzLjZjLTUyIDMxLjItMTAxLjYgNzAuNC0xNDcuNiAxMTYtMTM1LjIgMTM1LjItMjExLjIgMzA2LTE4OC44IDQyNC44bDAuNCAyLTM2LjggMzYuOHogbTMzNS4yLTYwMGMtNDggMzAuOC05NCA2OC0xMzYuNCAxMTAuNC0xNTEuMiAxNTEuMi0yMjguOCAzNDAuOC0xOTQuOCA0NzQuNGwyNC0yNGMtMTAuNC01OC44IDEuNi0xMjkuNiAzNC40LTIwNS42IDM0LTc4IDg4LjQtMTU1LjYgMTU3LjItMjI0LjQgNDQuOC00NC44IDkyLjgtODMuMiAxNDMuMi0xMTQuNGwtMjcuNi0xNi40ek01NjggNjcwLjhjLTIuOCAwLTUuMi0wLjQtNy42LTEuNi03LjYtMy4yLTEyLjgtMTAuNC0xMi44LTE4LjhWMzg4YzAtMTEuMiA5LjItMjAuNCAyMC40LTIwLjRzMjAuNCA5LjIgMjAuNCAyMC40djIxMi44bDU4LjQtNjBjNC00IDguOC02IDE0LjQtNnMxMC40IDIgMTQuNCA2YzQgMy42IDYgOC44IDYgMTQuNHMtMiAxMC40LTYgMTQuNGwtOTMuMiA5NS42Yy0zLjYgMy42LTguOCA1LjYtMTQuNCA1LjZ6IG0wLTI5NS4yYy02LjggMC0xMi40IDUuNi0xMi40IDEyLjR2MjYyLjhjMCA1LjIgMy4yIDkuNiA3LjYgMTEuNiA0LjggMiAxMCAwLjggMTMuNi0yLjhsOTMuMi05NS42YzIuNC0yLjQgMy42LTUuNiAzLjYtOC44IDAtMy4yLTEuMi02LjQtMy42LTguOC0yLjQtMi40LTUuNi0zLjYtOC44LTMuNi0zLjIgMC02LjQgMS4yLTguOCAzLjZsLTcyIDc0VjM4OGMwLTcuMi01LjYtMTIuNC0xMi40LTEyLjR6TTQ1OC44IDY2OGMtMTEuMiAwLTIwLjQtOS4yLTIwLjQtMjAuNHYtMjEyLjhsLTU4LjQgNjBjLTQgNC04LjggNi0xNC40IDZzLTEwLjQtMi0xNC40LTZjLTQtMy42LTYtOC44LTYtMTQuNHMyLTEwLjQgNi0xNC40bDkzLjItOTUuNmM1LjYtNiAxNC44LTcuNiAyMi40LTQuOCA3LjYgMy4yIDEyLjggMTAuNCAxMi44IDE4Ljh2MjYyLjhjLTAuNCAxMS42LTkuNiAyMC44LTIwLjggMjAuOHogbS0xMi40LTI1Mi44djIzMi40YzAgNi44IDUuNiAxMi40IDEyLjQgMTIuNHMxMi40LTUuNiAxMi40LTEyLjRWMzg0LjhjMC01LjItMy4yLTkuNi03LjYtMTEuNi00LjgtMi0xMC0wLjgtMTMuNiAyLjhsLTkzLjIgOTZjLTIuNCAyLjQtMy42IDUuNi0zLjYgOC44IDAgMy4yIDEuMiA2LjQgMy42IDguOCAyLjQgMi40IDUuNiAzLjYgOC44IDMuNiAzLjIgMCA2LjQtMS4yIDguOC0zLjZsNzItNzQuNHogbTM3MC40IDcybC0zLjItNS42Yy0zMS42LTUyLjQtNzEuMi0xMDIuNC0xMTcuNi0xNDguOEM1NjAuNCAxOTcuNiAzOTAgMTIxLjYgMjcxLjIgMTQ0bC0yIDAuNC0zNi44LTM2LjggNi40LTJDMzc1LjYgNjYuNCA1NzIgMTQ0LjggNzI4IDMwMC40YzQ0LjQgNDQuNCA4Mi44IDkyLjQgMTE0LjQgMTQyLjRsMS4yIDItMjYuOCA0Mi40ek0zMTUuMiAxMzJjNDguOCAwIDEwNCAxMi44IDE2MiAzOCA3OCAzNCAxNTUuNiA4OC40IDIyNC40IDE1Ny4yIDQ1LjIgNDUuMiA4NCA5NCAxMTUuMiAxNDQuOGwxNy42LTI2LjhjLTMxLjItNDkuMi02OC44LTk2LTExMi0xMzkuMi0xNTEuMi0xNTAuOC0zNDAuOC0yMjguNC00NzQuOC0xOTQuNGwyNCAyNGMxNC0yLjQgMjguNC0zLjYgNDMuNi0zLjZ6IG0tMTg0IDM1Mi44bC0zLjItNy42Yy0zNC44LTg4LTQzLjItMTY5LjYtMjQtMjM2LjRsMi02LjQgMzYuOCAzNi44LTAuNCAyYy04LjggNDYtMi44IDEwMS4yIDE3LjIgMTYwLjRsMC40IDEuNi0yOC44IDQ5LjZ6IG0tMjEuNi0yMzUuMmMtMTUuNiA2MC44LTcuNiAxMzcuMiAyMi44IDIxNi44bDE4LjQtMzJjLTE5LjYtNTguOC0yNS42LTExNC0xNy4yLTE2MC40bC0yNC0yNC40eiBtNzM0LjggMTRjLTIxLjIgMC00MC44LTguNC01NS42LTIzLjItMTQuOC0xNC44LTIzLjItMzQuOC0yMy4yLTU1LjYgMC0yMS4yIDguNC00MC44IDIzLjItNTUuNiAxNC44LTE0LjggMzQuOC0yMy4yIDU1LjYtMjMuMiAyMS4yIDAgNDAuOCA4LjQgNTUuNiAyMy4yIDE0LjggMTQuOCAyMy4yIDM0LjggMjMuMiA1NS42IDAgMjEuMi04LjQgNDAuOC0yMy4yIDU1LjYtMTQuOCAxNC44LTM0LjggMjMuMi01NS42IDIzLjJ6IG0wLTE1MGMtMTguOCAwLTM2LjggNy4yLTUwIDIwLjgtMTMuMiAxMy4yLTIwLjggMzEuMi0yMC44IDUwczcuMiAzNi44IDIwLjggNTBjMTMuMiAxMy4yIDMxLjIgMjAuOCA1MCAyMC44czM2LjgtNy4yIDUwLTIwLjhjMTMuMi0xMy4yIDIwLjgtMzEuMiAyMC44LTUwcy03LjItMzYuOC0yMC44LTUwYy0xMy4yLTEzLjItMzEuMi0yMC44LTUwLTIwLjh6TTE4Mi40IDI2My42Yy0yMS4yIDAtNDAuOC04LjQtNTUuNi0yMy4yLTE0LjgtMTQuOC0yMy4yLTM0LjgtMjMuMi01NS42IDAtMjEuMiA4LjQtNDAuOCAyMy4yLTU1LjYgMTQuOC0xNC44IDM0LjgtMjMuMiA1NS42LTIzLjIgMjEuMiAwIDQwLjggOC40IDU1LjYgMjMuMiAxNC44IDE0LjggMjMuMiAzNC44IDIzLjIgNTUuNiAwIDIxLjItOC40IDQwLjgtMjMuMiA1NS42LTE0LjQgMTQuOC0zNC40IDIzLjItNTUuNiAyMy4yeiBtMC0xNTBjLTE4LjggMC0zNi44IDcuMi01MCAyMC44LTEzLjIgMTMuMi0yMC44IDMxLjItMjAuOCA1MHM3LjIgMzYuOCAyMC44IDUwYzEzLjIgMTMuMiAzMS4yIDIwLjggNTAgMjAuOHMzNi44LTcuMiA1MC0yMC44YzEzLjItMTMuMiAyMC44LTMxLjIgMjAuOC01MHMtNy4yLTM2LjgtMjAuOC01MGMtMTMuMi0xMy4yLTMwLjgtMjAuOC01MC0yMC44eiBtNjY2LjQgMTEwLjhjLTExLjIgMC0yMS42LTQuNC0yOS42LTEyLjRzLTEyLjQtMTguNC0xMi40LTI5LjZjMC0xMS4yIDQuNC0yMS42IDEyLjQtMjkuNiAxNi40LTE2LjQgNDIuOC0xNi40IDU5LjIgMCA4IDggMTIuNCAxOC40IDEyLjQgMjkuNiAwIDExLjItNC40IDIxLjYtMTIuNCAyOS42LTcuNiA4LTE4LjQgMTIuNC0yOS42IDEyLjR6IG0tMjQtNjZjLTYuNCA2LjQtMTAgMTQuOC0xMCAyNHMzLjYgMTcuNiAxMCAyNGM2LjQgNi40IDE0LjggMTAgMjQgMTBzMTcuNi0zLjYgMjQtMTBjNi40LTYuNCAxMC0xNC44IDEwLTI0cy0zLjYtMTcuNi0xMC0yNGMtMTMuMi0xMy4yLTM0LjgtMTMuMi00OCAwek0xNzggMjI0LjRjLTExLjIgMC0yMS42LTQuNC0yOS42LTEyLjRTMTM2IDE5My42IDEzNiAxODIuNGMwLTExLjIgNC40LTIxLjYgMTIuNC0yOS42IDE2LjQtMTYuNCA0Mi44LTE2LjQgNTkuMiAwIDggOCAxMi40IDE4LjQgMTIuNCAyOS42IDAgMTEuMi00LjQgMjEuNi0xMi40IDI5LjZzLTE4LjQgMTIuNC0yOS42IDEyLjR6IG0wLTc2Yy04LjggMC0xNy4yIDMuMi0yNCAxMC02LjQgNi40LTEwIDE0LjgtMTAgMjRzMy42IDE3LjYgMTAgMjRjNi40IDYuNCAxNC44IDEwIDI0IDEwczE3LjYtMy42IDI0LTEwYzYuNC02LjQgMTAtMTQuOCAxMC0yNHMtMy42LTE3LjYtMTAtMjRjLTYuNC02LjgtMTUuMi0xMC0yNC0xMHpNNTkyLjggMTYwbC00OC40LTI5LjYgNy42LTIuOGM4OS42LTM1LjYgMTcyLjQtNDQgMjQwLTI0LjhsNi40IDItMzcuMiAzNy4yLTItMC40Yy00Ny4yLTguOC0xMDQtMi44LTE2NC40IDE4bC0yIDAuNHogbS0zMC40LTI4LjRsMzEuNiAxOS4yYzYwLjQtMjAuNCAxMTcuMi0yNi40IDE2NC44LTE4bDI0LjQtMjQuNGMtNjIuNC0xNS42LTE0MC03LjItMjIwLjggMjMuMnoiLz48L3N2Zz4=" vertex="1" parent="1">
          <mxGeometry x="110" y="792" width="71" height="71" as="geometry" />
        </mxCell>
        <mxCell id="BNeBFmw1EoEEX6mTBFbo-3" value="&lt;font color=&quot;#4a919b&quot;&gt;&lt;span style=&quot;font-size: 20px;&quot;&gt;网关&lt;/span&gt;&lt;/font&gt;" style="text;html=1;strokeColor=none;fillColor=none;align=center;verticalAlign=middle;whiteSpace=wrap;rounded=0;" vertex="1" parent="1">
          <mxGeometry x="53" y="810" width="57" height="30" as="geometry" />
        </mxCell>
        <mxCell id="BNeBFmw1EoEEX6mTBFbo-4" value="" style="shape=image;verticalLabelPosition=bottom;verticalAlign=top;imageAspect=0;image=data:image/svg+xml,PHN2ZyB4bWxuczp4bGluaz0iaHR0cDovL3d3dy53My5vcmcvMTk5OS94bGluayIgeG1sbnM9Imh0dHA6Ly93d3cudzMub3JnLzIwMDAvc3ZnIiBoZWlnaHQ9IjIwMCIgd2lkdGg9IjIwMCIgdmVyc2lvbj0iMS4xIiB2aWV3Qm94PSIwIDAgMTAyNCAxMDI0IiBjbGFzcz0iaWNvbiI+PGRlZnM+PHN0eWxlIHR5cGU9InRleHQvY3NzIj5AZm9udC1mYWNlIHsgZm9udC1mYW1pbHk6IGZlZWRiYWNrLWljb25mb250OyBzcmM6IHVybCgiLy9hdC5hbGljZG4uY29tL3QvZm9udF8xMDMxMTU4X3U2OXc4eWh4ZHUud29mZjI/dD0xNjMwMDMzNzU5OTQ0IikgZm9ybWF0KCJ3b2ZmMiIpLCB1cmwoIi8vYXQuYWxpY2RuLmNvbS90L2ZvbnRfMTAzMTE1OF91Njl3OHloeGR1LndvZmY/dD0xNjMwMDMzNzU5OTQ0IikgZm9ybWF0KCJ3b2ZmIiksIHVybCgiLy9hdC5hbGljZG4uY29tL3QvZm9udF8xMDMxMTU4X3U2OXc4eWh4ZHUudHRmP3Q9MTYzMDAzMzc1OTk0NCIpIGZvcm1hdCgidHJ1ZXR5cGUiKTsgfSYjeGE7PC9zdHlsZT48L2RlZnM+PHBhdGggZmlsbD0iIzRBOTE5QiIgZD0iTTAgNzI4djEzNmMwIDM1LjMgMjguNyA2NCA2NCA2NGg4OTZjMzUuMyAwIDY0LTI4LjcgNjQtNjRWNzI4YzAtNC40LTMuNi04LTgtOEg4Yy00LjQgMC04IDMuNi04IDh6IG03NzQgOTZjMCA0LjQtMy42IDgtOCA4SDQyNGMtNC40IDAtOC0zLjYtOC04di00OGMwLTQuNCAzLjYtOCA4LThoMzQyYzQuNCAwIDggMy42IDggOHY0OHogbTEyMiAwYzAgNC40LTMuNiA4LTggOGgtNDhjLTQuNCAwLTgtMy42LTgtOHYtNDhjMC00LjQgMy42LTggOC04aDQ4YzQuNCAwIDggMy42IDggOHY0OHpNMCA1MzZ2MTQ0YzAgNC40IDMuNiA4IDggOGgxMDA4YzQuNCAwIDgtMy42IDgtOFY1MzZjMC00LjQtMy42LTgtOC04SDhjLTQuNCAwLTggMy42LTggOHogbTc3NCA5NmMwIDQuNC0zLjYgOC04IDhINDI0Yy00LjQgMC04LTMuNi04LTh2LTQ4YzAtNC40IDMuNi04IDgtOGgzNDJjNC40IDAgOCAzLjYgOCA4djQ4eiBtMTIyIDBjMCA0LjQtMy42IDgtOCA4aC00OGMtNC40IDAtOC0zLjYtOC04di00OGMwLTQuNCAzLjYtOCA4LThoNDhjNC40IDAgOCAzLjYgOCA4djQ4ek0wIDM0NHYxNDRjMCA0LjQgMy42IDggOCA4aDEwMDhjNC40IDAgOC0zLjYgOC04VjM0NGMwLTQuNC0zLjYtOC04LThIOGMtNC40IDAtOCAzLjYtOCA4eiBtNzc0IDk2YzAgNC40LTMuNiA4LTggOEg0MjRjLTQuNCAwLTgtMy42LTgtOHYtNDhjMC00LjQgMy42LTggOC04aDM0MmM0LjQgMCA4IDMuNiA4IDh2NDh6IG0xMjIgMGMwIDQuNC0zLjYgOC04IDhoLTQ4Yy00LjQgMC04LTMuNi04LTh2LTQ4YzAtNC40IDMuNi04IDgtOGg0OGM0LjQgMCA4IDMuNiA4IDh2NDh6TTk2MCA5Nkg2NGMtMzUuMyAwLTY0IDI4LjctNjQgNjR2MTM2YzAgNC40IDMuNiA4IDggOGgxMDA4YzQuNCAwIDgtMy42IDgtOFYxNjBjMC0zNS4zLTI4LjctNjQtNjQtNjR6TTc3NCAyNDhjMCA0LjQtMy42IDgtOCA4SDQyNGMtNC40IDAtOC0zLjYtOC04di00OGMwLTQuNCAzLjYtOCA4LThoMzQyYzQuNCAwIDggMy42IDggOHY0OHogbTEyMiAwYzAgNC40LTMuNiA4LTggOGgtNDhjLTQuNCAwLTgtMy42LTgtOHYtNDhjMC00LjQgMy42LTggOC04aDQ4YzQuNCAwIDggMy42IDggOHY0OHoiLz48L3N2Zz4=" vertex="1" parent="1">
          <mxGeometry x="250" y="866" width="87" height="87" as="geometry" />
        </mxCell>
        <mxCell id="BNeBFmw1EoEEX6mTBFbo-5" style="edgeStyle=orthogonalEdgeStyle;orthogonalLoop=1;jettySize=auto;html=1;exitX=0.5;exitY=1;exitDx=0;exitDy=0;fontSize=20;fontColor=#4A919B;fillColor=#FDD276;endArrow=none;endFill=0;strokeWidth=3;dashed=1;rounded=1;strokeColor=#808080;" edge="1" parent="1" source="BNeBFmw1EoEEX6mTBFbo-6">
          <mxGeometry relative="1" as="geometry">
            <mxPoint x="445.5" y="800" as="targetPoint" />
          </mxGeometry>
        </mxCell>
        <mxCell id="BNeBFmw1EoEEX6mTBFbo-6" value="" style="shape=image;verticalLabelPosition=bottom;labelBackgroundColor=default;verticalAlign=top;aspect=fixed;imageAspect=0;image=data:image/svg+xml,PHN2ZyB4bWxuczp4bGluaz0iaHR0cDovL3d3dy53My5vcmcvMTk5OS94bGluayIgeG1sbnM9Imh0dHA6Ly93d3cudzMub3JnLzIwMDAvc3ZnIiBoZWlnaHQ9IjIwMCIgd2lkdGg9IjIwMCIgdmVyc2lvbj0iMS4xIiB2aWV3Qm94PSIwIDAgMTAyNCAxMDI0IiBjbGFzcz0iaWNvbiI+PHBhdGggZmlsbD0iIzRBOTE5QiIgZD0iTTgyMS42IDEwMjBIMjM0LjRjLTI4LjggMC01Mi44LTI0LTUyLjgtNTIuOFY1Ni44YzAtMjguOCAyNC01Mi44IDUyLjgtNTIuOGg1ODhjMjguOCAwIDUyLjggMjQgNTIuOCA1Mi44djkxMC40YzAgMjguOC0yNCA1Mi44LTUzLjYgNTIuOHpNMjM0LjQgMzZjLTExLjIgMC0yMC44IDkuNi0yMC44IDIwLjh2OTEwLjRjMCAxMS4yIDkuNiAyMC44IDIwLjggMjAuOGg1ODhjMTEuMiAwIDIwLjgtOS42IDIwLjgtMjAuOFY1Ni44YzAtMTEuMi05LjYtMjAuOC0yMC44LTIwLjhIMjM0LjR6Ii8+PHBhdGggZmlsbD0iIzRBOTE5QiIgZD0iTTY1OC40IDkwMy4yYy03NiAwLTEzOC40LTYxLjYtMTM4LjQtMTM4LjRzNjEuNi0xMzguNCAxMzguNC0xMzguNGM3NiAwIDEzOC40IDYxLjYgMTM4LjQgMTM4LjRzLTYyLjQgMTM4LjQtMTM4LjQgMTM4LjR6IG0wLTI2MGMtNjcuMiAwLTEyMi40IDU0LjQtMTIyLjQgMTIyLjQgMCA2Ny4yIDU0LjQgMTIyLjQgMTIyLjQgMTIyLjQgNjcuMiAwIDEyMi40LTU0LjQgMTIyLjQtMTIyLjQtMC44LTY4LTU1LjItMTIyLjQtMTIyLjQtMTIyLjR6TTc0OS42IDU0MS42SDMwNi40Yy0yNS42IDAtNDYuNC0yMC44LTQ2LjQtNDYuNFYxMzguNGMwLTI1LjYgMjAuOC00Ni40IDQ2LjQtNDYuNGg0NDIuNGMyNS42IDAgNDYuNCAyMC44IDQ2LjQgNDYuNHYzNTYuOGMwLjggMjUuNi0yMCA0Ni40LTQ1LjYgNDYuNHpNMzA2LjQgMTA4Yy0xNi44IDAtMzAuNCAxMy42LTMwLjQgMzAuNHYzNTYuOGMwIDE2LjggMTMuNiAzMC40IDMwLjQgMzAuNGg0NDIuNGMxNi44IDAgMzAuNC0xMy42IDMwLjQtMzAuNFYxMzguNGMwLTE2LjgtMTMuNi0zMC40LTMwLjQtMzAuNEgzMDYuNHpNNDEyIDc1NmMtMzAuNCAwLTU1LjItMjQuOC01NS4yLTU1LjIgMC0zMC40IDI0LjgtNTUuMiA1NS4yLTU1LjIgMzAuNCAwIDU1LjIgMjQuOCA1NS4yIDU1LjIgMCAzMC40LTI0LjggNTUuMi01NS4yIDU1LjJ6IG0wLTk0LjRjLTIxLjYgMC0zOS4yIDE3LjYtMzkuMiAzOS4yczE3LjYgMzkuMiAzOS4yIDM5LjIgMzkuMi0xNy42IDM5LjItMzkuMi0xNy42LTM5LjItMzkuMi0zOS4yek0zMTUuMiA4ODQuOGMtMzAuNCAwLTU1LjItMjQuOC01NS4yLTU1LjIgMC0zMC40IDI0LjgtNTUuMiA1NS4yLTU1LjIgMzAuNCAwIDU1LjIgMjQuOCA1NS4yIDU1LjIgMC44IDMwLjQtMjQuOCA1NS4yLTU1LjIgNTUuMnogbTAtOTUuMmMtMjEuNiAwLTM5LjIgMTcuNi0zOS4yIDM5LjJzMTcuNiAzOS4yIDM5LjIgMzkuMiAzOS4yLTE3LjYgMzkuMi0zOS4yYzAuOC0yMS42LTE3LjYtMzkuMi0zOS4yLTM5LjJ6Ii8+PHBhdGggZmlsbD0iIzRBOTE5QiIgZD0iTTczMS4yIDc3Mi44SDU4NC44Yy00LjggMC04LTMuMi04LThzMy4yLTggOC04aDE0NS42YzQuOCAwIDggMy4yIDggOCAwLjggNC44LTMuMiA4LTcuMiA4eiIvPjxwYXRoIGZpbGw9IiM0QTkxOUIiIGQ9Ik02NTguNCA4NDUuNmMtNC44IDAtOC00LTgtOGwwLjgtMTQ1LjZjMC00LjggMy4yLTggOC04czggNCA4IDhsLTAuOCAxNDUuNmMwIDQuOC00IDgtOCA4eiIvPjwvc3ZnPg==;" vertex="1" parent="1">
          <mxGeometry x="337" y="672" width="50" height="50" as="geometry" />
        </mxCell>
        <mxCell id="BNeBFmw1EoEEX6mTBFbo-7" style="edgeStyle=orthogonalEdgeStyle;orthogonalLoop=1;jettySize=auto;html=1;exitX=0.5;exitY=1;exitDx=0;exitDy=0;fontSize=20;fontColor=#4A919B;fillColor=#FDD276;endArrow=none;endFill=0;strokeWidth=3;dashed=1;rounded=1;strokeColor=#808080;" edge="1" parent="1" source="BNeBFmw1EoEEX6mTBFbo-8">
          <mxGeometry relative="1" as="geometry">
            <mxPoint x="445.5" y="800" as="targetPoint" />
          </mxGeometry>
        </mxCell>
        <mxCell id="BNeBFmw1EoEEX6mTBFbo-8" value="" style="shape=image;verticalLabelPosition=bottom;labelBackgroundColor=default;verticalAlign=top;aspect=fixed;imageAspect=0;image=data:image/svg+xml,PHN2ZyB4bWxuczp4bGluaz0iaHR0cDovL3d3dy53My5vcmcvMTk5OS94bGluayIgeG1sbnM9Imh0dHA6Ly93d3cudzMub3JnLzIwMDAvc3ZnIiBoZWlnaHQ9IjIwMCIgd2lkdGg9IjIwMCIgdmVyc2lvbj0iMS4xIiB2aWV3Qm94PSIwIDAgMTAyNCAxMDI0IiBjbGFzcz0iaWNvbiI+PHBhdGggZmlsbD0iIzRBOTE5QiIgZD0iTTgyMS42IDEwMjBIMjM0LjRjLTI4LjggMC01Mi44LTI0LTUyLjgtNTIuOFY1Ni44YzAtMjguOCAyNC01Mi44IDUyLjgtNTIuOGg1ODhjMjguOCAwIDUyLjggMjQgNTIuOCA1Mi44djkxMC40YzAgMjguOC0yNCA1Mi44LTUzLjYgNTIuOHpNMjM0LjQgMzZjLTExLjIgMC0yMC44IDkuNi0yMC44IDIwLjh2OTEwLjRjMCAxMS4yIDkuNiAyMC44IDIwLjggMjAuOGg1ODhjMTEuMiAwIDIwLjgtOS42IDIwLjgtMjAuOFY1Ni44YzAtMTEuMi05LjYtMjAuOC0yMC44LTIwLjhIMjM0LjR6Ii8+PHBhdGggZmlsbD0iIzRBOTE5QiIgZD0iTTY1OC40IDkwMy4yYy03NiAwLTEzOC40LTYxLjYtMTM4LjQtMTM4LjRzNjEuNi0xMzguNCAxMzguNC0xMzguNGM3NiAwIDEzOC40IDYxLjYgMTM4LjQgMTM4LjRzLTYyLjQgMTM4LjQtMTM4LjQgMTM4LjR6IG0wLTI2MGMtNjcuMiAwLTEyMi40IDU0LjQtMTIyLjQgMTIyLjQgMCA2Ny4yIDU0LjQgMTIyLjQgMTIyLjQgMTIyLjQgNjcuMiAwIDEyMi40LTU0LjQgMTIyLjQtMTIyLjQtMC44LTY4LTU1LjItMTIyLjQtMTIyLjQtMTIyLjR6TTc0OS42IDU0MS42SDMwNi40Yy0yNS42IDAtNDYuNC0yMC44LTQ2LjQtNDYuNFYxMzguNGMwLTI1LjYgMjAuOC00Ni40IDQ2LjQtNDYuNGg0NDIuNGMyNS42IDAgNDYuNCAyMC44IDQ2LjQgNDYuNHYzNTYuOGMwLjggMjUuNi0yMCA0Ni40LTQ1LjYgNDYuNHpNMzA2LjQgMTA4Yy0xNi44IDAtMzAuNCAxMy42LTMwLjQgMzAuNHYzNTYuOGMwIDE2LjggMTMuNiAzMC40IDMwLjQgMzAuNGg0NDIuNGMxNi44IDAgMzAuNC0xMy42IDMwLjQtMzAuNFYxMzguNGMwLTE2LjgtMTMuNi0zMC40LTMwLjQtMzAuNEgzMDYuNHpNNDEyIDc1NmMtMzAuNCAwLTU1LjItMjQuOC01NS4yLTU1LjIgMC0zMC40IDI0LjgtNTUuMiA1NS4yLTU1LjIgMzAuNCAwIDU1LjIgMjQuOCA1NS4yIDU1LjIgMCAzMC40LTI0LjggNTUuMi01NS4yIDU1LjJ6IG0wLTk0LjRjLTIxLjYgMC0zOS4yIDE3LjYtMzkuMiAzOS4yczE3LjYgMzkuMiAzOS4yIDM5LjIgMzkuMi0xNy42IDM5LjItMzkuMi0xNy42LTM5LjItMzkuMi0zOS4yek0zMTUuMiA4ODQuOGMtMzAuNCAwLTU1LjItMjQuOC01NS4yLTU1LjIgMC0zMC40IDI0LjgtNTUuMiA1NS4yLTU1LjIgMzAuNCAwIDU1LjIgMjQuOCA1NS4yIDU1LjIgMC44IDMwLjQtMjQuOCA1NS4yLTU1LjIgNTUuMnogbTAtOTUuMmMtMjEuNiAwLTM5LjIgMTcuNi0zOS4yIDM5LjJzMTcuNiAzOS4yIDM5LjIgMzkuMiAzOS4yLTE3LjYgMzkuMi0zOS4yYzAuOC0yMS42LTE3LjYtMzkuMi0zOS4yLTM5LjJ6Ii8+PHBhdGggZmlsbD0iIzRBOTE5QiIgZD0iTTczMS4yIDc3Mi44SDU4NC44Yy00LjggMC04LTMuMi04LThzMy4yLTggOC04aDE0NS42YzQuOCAwIDggMy4yIDggOCAwLjggNC44LTMuMiA4LTcuMiA4eiIvPjxwYXRoIGZpbGw9IiM0QTkxOUIiIGQ9Ik02NTguNCA4NDUuNmMtNC44IDAtOC00LTgtOGwwLjgtMTQ1LjZjMC00LjggMy4yLTggOC04czggNCA4IDhsLTAuOCAxNDUuNmMwIDQuOC00IDgtOCA4eiIvPjwvc3ZnPg==;" vertex="1" parent="1">
          <mxGeometry x="395" y="672" width="50" height="50" as="geometry" />
        </mxCell>
        <mxCell id="BNeBFmw1EoEEX6mTBFbo-9" style="edgeStyle=orthogonalEdgeStyle;orthogonalLoop=1;jettySize=auto;html=1;exitX=0.5;exitY=1;exitDx=0;exitDy=0;fontSize=20;fontColor=#4A919B;fillColor=#FDD276;endArrow=none;endFill=0;strokeWidth=3;dashed=1;rounded=1;strokeColor=#808080;" edge="1" parent="1" source="BNeBFmw1EoEEX6mTBFbo-10">
          <mxGeometry relative="1" as="geometry">
            <mxPoint x="445.5" y="800" as="targetPoint" />
          </mxGeometry>
        </mxCell>
        <mxCell id="BNeBFmw1EoEEX6mTBFbo-10" value="" style="shape=image;verticalLabelPosition=bottom;labelBackgroundColor=default;verticalAlign=top;aspect=fixed;imageAspect=0;image=data:image/svg+xml,PHN2ZyB4bWxuczp4bGluaz0iaHR0cDovL3d3dy53My5vcmcvMTk5OS94bGluayIgeG1sbnM9Imh0dHA6Ly93d3cudzMub3JnLzIwMDAvc3ZnIiBoZWlnaHQ9IjIwMCIgd2lkdGg9IjIwMCIgdmVyc2lvbj0iMS4xIiB2aWV3Qm94PSIwIDAgMTAyNCAxMDI0IiBjbGFzcz0iaWNvbiI+PHBhdGggZmlsbD0iIzRBOTE5QiIgZD0iTTgyMS42IDEwMjBIMjM0LjRjLTI4LjggMC01Mi44LTI0LTUyLjgtNTIuOFY1Ni44YzAtMjguOCAyNC01Mi44IDUyLjgtNTIuOGg1ODhjMjguOCAwIDUyLjggMjQgNTIuOCA1Mi44djkxMC40YzAgMjguOC0yNCA1Mi44LTUzLjYgNTIuOHpNMjM0LjQgMzZjLTExLjIgMC0yMC44IDkuNi0yMC44IDIwLjh2OTEwLjRjMCAxMS4yIDkuNiAyMC44IDIwLjggMjAuOGg1ODhjMTEuMiAwIDIwLjgtOS42IDIwLjgtMjAuOFY1Ni44YzAtMTEuMi05LjYtMjAuOC0yMC44LTIwLjhIMjM0LjR6Ii8+PHBhdGggZmlsbD0iIzRBOTE5QiIgZD0iTTY1OC40IDkwMy4yYy03NiAwLTEzOC40LTYxLjYtMTM4LjQtMTM4LjRzNjEuNi0xMzguNCAxMzguNC0xMzguNGM3NiAwIDEzOC40IDYxLjYgMTM4LjQgMTM4LjRzLTYyLjQgMTM4LjQtMTM4LjQgMTM4LjR6IG0wLTI2MGMtNjcuMiAwLTEyMi40IDU0LjQtMTIyLjQgMTIyLjQgMCA2Ny4yIDU0LjQgMTIyLjQgMTIyLjQgMTIyLjQgNjcuMiAwIDEyMi40LTU0LjQgMTIyLjQtMTIyLjQtMC44LTY4LTU1LjItMTIyLjQtMTIyLjQtMTIyLjR6TTc0OS42IDU0MS42SDMwNi40Yy0yNS42IDAtNDYuNC0yMC44LTQ2LjQtNDYuNFYxMzguNGMwLTI1LjYgMjAuOC00Ni40IDQ2LjQtNDYuNGg0NDIuNGMyNS42IDAgNDYuNCAyMC44IDQ2LjQgNDYuNHYzNTYuOGMwLjggMjUuNi0yMCA0Ni40LTQ1LjYgNDYuNHpNMzA2LjQgMTA4Yy0xNi44IDAtMzAuNCAxMy42LTMwLjQgMzAuNHYzNTYuOGMwIDE2LjggMTMuNiAzMC40IDMwLjQgMzAuNGg0NDIuNGMxNi44IDAgMzAuNC0xMy42IDMwLjQtMzAuNFYxMzguNGMwLTE2LjgtMTMuNi0zMC40LTMwLjQtMzAuNEgzMDYuNHpNNDEyIDc1NmMtMzAuNCAwLTU1LjItMjQuOC01NS4yLTU1LjIgMC0zMC40IDI0LjgtNTUuMiA1NS4yLTU1LjIgMzAuNCAwIDU1LjIgMjQuOCA1NS4yIDU1LjIgMCAzMC40LTI0LjggNTUuMi01NS4yIDU1LjJ6IG0wLTk0LjRjLTIxLjYgMC0zOS4yIDE3LjYtMzkuMiAzOS4yczE3LjYgMzkuMiAzOS4yIDM5LjIgMzkuMi0xNy42IDM5LjItMzkuMi0xNy42LTM5LjItMzkuMi0zOS4yek0zMTUuMiA4ODQuOGMtMzAuNCAwLTU1LjItMjQuOC01NS4yLTU1LjIgMC0zMC40IDI0LjgtNTUuMiA1NS4yLTU1LjIgMzAuNCAwIDU1LjIgMjQuOCA1NS4yIDU1LjIgMC44IDMwLjQtMjQuOCA1NS4yLTU1LjIgNTUuMnogbTAtOTUuMmMtMjEuNiAwLTM5LjIgMTcuNi0zOS4yIDM5LjJzMTcuNiAzOS4yIDM5LjIgMzkuMiAzOS4yLTE3LjYgMzkuMi0zOS4yYzAuOC0yMS42LTE3LjYtMzkuMi0zOS4yLTM5LjJ6Ii8+PHBhdGggZmlsbD0iIzRBOTE5QiIgZD0iTTczMS4yIDc3Mi44SDU4NC44Yy00LjggMC04LTMuMi04LThzMy4yLTggOC04aDE0NS42YzQuOCAwIDggMy4yIDggOCAwLjggNC44LTMuMiA4LTcuMiA4eiIvPjxwYXRoIGZpbGw9IiM0QTkxOUIiIGQ9Ik02NTguNCA4NDUuNmMtNC44IDAtOC00LTgtOGwwLjgtMTQ1LjZjMC00LjggMy4yLTggOC04czggNCA4IDhsLTAuOCAxNDUuNmMwIDQuOC00IDgtOCA4eiIvPjwvc3ZnPg==;" vertex="1" parent="1">
          <mxGeometry x="453" y="672" width="50" height="50" as="geometry" />
        </mxCell>
        <mxCell id="BNeBFmw1EoEEX6mTBFbo-11" style="edgeStyle=orthogonalEdgeStyle;orthogonalLoop=1;jettySize=auto;html=1;exitX=0.5;exitY=1;exitDx=0;exitDy=0;entryX=0.5;entryY=0;entryDx=0;entryDy=0;fontSize=20;fontColor=#4A919B;fillColor=#FDD276;endArrow=none;endFill=0;strokeWidth=3;dashed=1;rounded=1;strokeColor=#808080;" edge="1" parent="1" source="BNeBFmw1EoEEX6mTBFbo-12">
          <mxGeometry relative="1" as="geometry">
            <mxPoint x="445.5" y="800" as="targetPoint" />
          </mxGeometry>
        </mxCell>
        <mxCell id="BNeBFmw1EoEEX6mTBFbo-12" value="" style="shape=image;verticalLabelPosition=bottom;labelBackgroundColor=default;verticalAlign=top;aspect=fixed;imageAspect=0;image=data:image/svg+xml,PHN2ZyB4bWxuczp4bGluaz0iaHR0cDovL3d3dy53My5vcmcvMTk5OS94bGluayIgeG1sbnM9Imh0dHA6Ly93d3cudzMub3JnLzIwMDAvc3ZnIiBoZWlnaHQ9IjIwMCIgd2lkdGg9IjIwMCIgdmVyc2lvbj0iMS4xIiB2aWV3Qm94PSIwIDAgMTAyNCAxMDI0IiBjbGFzcz0iaWNvbiI+PHBhdGggZmlsbD0iIzRBOTE5QiIgZD0iTTgyMS42IDEwMjBIMjM0LjRjLTI4LjggMC01Mi44LTI0LTUyLjgtNTIuOFY1Ni44YzAtMjguOCAyNC01Mi44IDUyLjgtNTIuOGg1ODhjMjguOCAwIDUyLjggMjQgNTIuOCA1Mi44djkxMC40YzAgMjguOC0yNCA1Mi44LTUzLjYgNTIuOHpNMjM0LjQgMzZjLTExLjIgMC0yMC44IDkuNi0yMC44IDIwLjh2OTEwLjRjMCAxMS4yIDkuNiAyMC44IDIwLjggMjAuOGg1ODhjMTEuMiAwIDIwLjgtOS42IDIwLjgtMjAuOFY1Ni44YzAtMTEuMi05LjYtMjAuOC0yMC44LTIwLjhIMjM0LjR6Ii8+PHBhdGggZmlsbD0iIzRBOTE5QiIgZD0iTTY1OC40IDkwMy4yYy03NiAwLTEzOC40LTYxLjYtMTM4LjQtMTM4LjRzNjEuNi0xMzguNCAxMzguNC0xMzguNGM3NiAwIDEzOC40IDYxLjYgMTM4LjQgMTM4LjRzLTYyLjQgMTM4LjQtMTM4LjQgMTM4LjR6IG0wLTI2MGMtNjcuMiAwLTEyMi40IDU0LjQtMTIyLjQgMTIyLjQgMCA2Ny4yIDU0LjQgMTIyLjQgMTIyLjQgMTIyLjQgNjcuMiAwIDEyMi40LTU0LjQgMTIyLjQtMTIyLjQtMC44LTY4LTU1LjItMTIyLjQtMTIyLjQtMTIyLjR6TTc0OS42IDU0MS42SDMwNi40Yy0yNS42IDAtNDYuNC0yMC44LTQ2LjQtNDYuNFYxMzguNGMwLTI1LjYgMjAuOC00Ni40IDQ2LjQtNDYuNGg0NDIuNGMyNS42IDAgNDYuNCAyMC44IDQ2LjQgNDYuNHYzNTYuOGMwLjggMjUuNi0yMCA0Ni40LTQ1LjYgNDYuNHpNMzA2LjQgMTA4Yy0xNi44IDAtMzAuNCAxMy42LTMwLjQgMzAuNHYzNTYuOGMwIDE2LjggMTMuNiAzMC40IDMwLjQgMzAuNGg0NDIuNGMxNi44IDAgMzAuNC0xMy42IDMwLjQtMzAuNFYxMzguNGMwLTE2LjgtMTMuNi0zMC40LTMwLjQtMzAuNEgzMDYuNHpNNDEyIDc1NmMtMzAuNCAwLTU1LjItMjQuOC01NS4yLTU1LjIgMC0zMC40IDI0LjgtNTUuMiA1NS4yLTU1LjIgMzAuNCAwIDU1LjIgMjQuOCA1NS4yIDU1LjIgMCAzMC40LTI0LjggNTUuMi01NS4yIDU1LjJ6IG0wLTk0LjRjLTIxLjYgMC0zOS4yIDE3LjYtMzkuMiAzOS4yczE3LjYgMzkuMiAzOS4yIDM5LjIgMzkuMi0xNy42IDM5LjItMzkuMi0xNy42LTM5LjItMzkuMi0zOS4yek0zMTUuMiA4ODQuOGMtMzAuNCAwLTU1LjItMjQuOC01NS4yLTU1LjIgMC0zMC40IDI0LjgtNTUuMiA1NS4yLTU1LjIgMzAuNCAwIDU1LjIgMjQuOCA1NS4yIDU1LjIgMC44IDMwLjQtMjQuOCA1NS4yLTU1LjIgNTUuMnogbTAtOTUuMmMtMjEuNiAwLTM5LjIgMTcuNi0zOS4yIDM5LjJzMTcuNiAzOS4yIDM5LjIgMzkuMiAzOS4yLTE3LjYgMzkuMi0zOS4yYzAuOC0yMS42LTE3LjYtMzkuMi0zOS4yLTM5LjJ6Ii8+PHBhdGggZmlsbD0iIzRBOTE5QiIgZD0iTTczMS4yIDc3Mi44SDU4NC44Yy00LjggMC04LTMuMi04LThzMy4yLTggOC04aDE0NS42YzQuOCAwIDggMy4yIDggOCAwLjggNC44LTMuMiA4LTcuMiA4eiIvPjxwYXRoIGZpbGw9IiM0QTkxOUIiIGQ9Ik02NTguNCA4NDUuNmMtNC44IDAtOC00LTgtOGwwLjgtMTQ1LjZjMC00LjggMy4yLTggOC04czggNCA4IDhsLTAuOCAxNDUuNmMwIDQuOC00IDgtOCA4eiIvPjwvc3ZnPg==;" vertex="1" parent="1">
          <mxGeometry x="511" y="672" width="50" height="50" as="geometry" />
        </mxCell>
        <mxCell id="BNeBFmw1EoEEX6mTBFbo-16" style="edgeStyle=orthogonalEdgeStyle;rounded=1;orthogonalLoop=1;jettySize=auto;html=1;exitX=0.5;exitY=1;exitDx=0;exitDy=0;entryX=1;entryY=0.5;entryDx=0;entryDy=0;strokeColor=#808080;endArrow=none;endFill=0;strokeWidth=3;dashed=1;" edge="1" parent="1" source="BNeBFmw1EoEEX6mTBFbo-13" target="BNeBFmw1EoEEX6mTBFbo-4">
          <mxGeometry relative="1" as="geometry" />
        </mxCell>
        <mxCell id="BNeBFmw1EoEEX6mTBFbo-13" value="" style="shape=image;verticalLabelPosition=bottom;verticalAlign=top;imageAspect=0;aspect=fixed;image=data:image/svg+xml,PHN2ZyB4bWxuczp4bGluaz0iaHR0cDovL3d3dy53My5vcmcvMTk5OS94bGluayIgeG1sbnM9Imh0dHA6Ly93d3cudzMub3JnLzIwMDAvc3ZnIiBoZWlnaHQ9IjIwMCIgd2lkdGg9IjIwMCIgdmVyc2lvbj0iMS4xIiB2aWV3Qm94PSIwIDAgMTAyNCAxMDI0IiBjbGFzcz0iaWNvbiI+PHBhdGggZmlsbD0iIzRBOTE5QiIgZD0iTTY5OC44IDMzMGM0Ny42IDQ3LjYgODcuMiA5OC40IDExOCAxNDkuNmwyMi40LTM0Yy0zMC44LTQ4LjgtNjguOC05Ni44LTExNC0xNDJDNTY2LjggMTQ1LjIgMzcxLjYgNzIgMjQwIDEwOS42bDMwLjQgMzAuNGMxMTcuMi0yMiAyODcuMiA0OS4yIDQyOC40IDE5MHogbTYwLjgtMTkyLjhsMzAuOC0zMC44Yy02Ny4yLTE5LjItMTUwLjQtMTAtMjM3LjIgMjQuNGw0MCAyNC40YzYwLjgtMjAuNCAxMTgtMjcuMiAxNjYuNC0xOHogbS01MjQgMTAwLjRjMjkuMi0yOS4yIDI5LjItNzYuOCAwLTEwNi0yOS4yLTI5LjItNzYuOC0yOS4yLTEwNiAwLTI5LjIgMjkuMi0yOS4yIDc2LjggMCAxMDYgMjkuMiAyOS4yIDc2LjggMjkuMiAxMDYgMHpNMTUxLjIgMTU1LjZhMzcuOTA0IDM3LjkwNCAwIDEgMSA1My42IDUzLjYwOEEzNy45MDQgMzcuOTA0IDAgMCAxIDE1MS4yIDE1NS42eiBtNDI2IDY4OS4yYzUwLjgtMzEuMiAxMDEuMi03MC44IDE0OC0xMTcuNiAxNTguNC0xNTguNCAyMzEuNi0zNTMuNiAxOTQtNDg1LjJsLTMwLjQgMzAuNGMyMiAxMTcuMi00OC44IDI4Ny4yLTE5MCA0MjguNC00OS4yIDQ5LjItMTAyIDkwLTE1NC44IDEyMS4ybDMzLjIgMjIuOHogbTIxNC02MDcuMmMyOS4yIDI5LjIgNzYuOCAyOS4yIDEwNiAwIDI5LjItMjkuMiAyOS4yLTc2LjggMC0xMDYtMjkuMi0yOS4yLTc2LjgtMjkuMi0xMDYgMC0yOS4yIDI5LjItMjkuMiA3Ni44IDAgMTA2eiBtMzAuOC04MmEzNy45MDQgMzcuOTA0IDAgMSAxIDUzLjYgNTMuNjA4QTM3LjkwNCAzNy45MDQgMCAwIDEgODIyIDE1NS42eiBtNDggNDM1LjZjMjEuMiA2MC44IDI4IDExOC44IDE4LjggMTY3LjJsMzAuNCAzMC40YzE5LjItNjYuNCA5LjYtMTQ5LjItMjQuOC0yMzUuNmwtMjQuNCAzOHpNMjcwLjQgODkwLjhsLTMwLjQgMzAuNGM2NS42IDE4LjggMTQ3LjIgMTAgMjMyLjQtMjMuMmwtMzYuNC0yNS4yYy02MC40IDIwLjQtMTE3LjIgMjcuMi0xNjUuNiAxOHpNMzI4IDcwMC44Yy00OC40LTQ4LjQtODguNC0xMDAtMTE5LjItMTUxLjZsLTIxLjIgMzYuNGMzMC44IDQ4LjggNjguOCA5Ni44IDExNCAxNDEuNiAxNTguNCAxNTguNCAzNTMuNiAyMzEuNiA0ODUuMiAxOTRsLTMwLjQtMzAuNGMtMTE3LjIgMjItMjg3LjItNDguOC00MjguNC0xOTB6IG0tMTcyLjgtMjY2Yy0yMC01OS4yLTI2LTExNS4yLTE3LjItMTYyLjRsLTMwLjQtMzAuNGMtMTguOCA2Ni0xMCAxNDguNCAyNCAyMzMuNmwyMy42LTQwLjh6IG02MzYgMzU4LjRjLTI5LjIgMjkuMi0yOS4yIDc2LjggMCAxMDYgMjkuMiAyOS4yIDc2LjggMjkuMiAxMDYgMCAyOS4yLTI5LjIgMjkuMi03Ni44IDAtMTA2LTI5LjItMjkuMi03Ni40LTI5LjItMTA2IDB6IG04NC40IDg2LjhhMzcuOTA0IDM3LjkwNCAwIDEgMS01My42LTUzLjYwOEEzNy45MDQgMzcuOTA0IDAgMCAxIDg3NS42IDg4MHogbS02NDAtODYuOGMtMjkuMi0yOS4yLTc2LjgtMjkuMi0xMDYgMC0yOS4yIDI5LjItMjkuMiA3Ni44IDAgMTA2IDI5LjIgMjkuMiA3Ni44IDI5LjIgMTA2IDAgMjkuMi0yOS4yIDI5LjItNzYuNCAwLTEwNnpNMjA0LjggODgwYTM3LjkwNCAzNy45MDQgMCAxIDEtNTMuNi01My42MDhBMzcuOTA0IDM3LjkwNCAwIDAgMSAyMDQuOCA4ODB6IG0tNjYuOC0xMjEuNkMxMTYgNjQxLjIgMTg3LjIgNDcxLjIgMzI4IDMzMGM0Ny4yLTQ3LjIgOTcuNi04Ni40IDE0OC0xMTcuMmwtMzUuMi0yMS42Yy00Ny42IDMwLjQtOTQuOCA2OC0xMzkuMiAxMTItMTU4LjQgMTU4LjQtMjMxLjYgMzUzLjYtMTk0IDQ4NS4ybDMwLjQtMzB6IG0zMjAuOC05NC40YzkuMiAwIDE2LjQtNy4yIDE2LjQtMTYuNFYzODQuOGMwLTYuOC00LTEyLjgtMTAuNC0xNS4yLTYtMi40LTEzLjItMS4yLTE4IDMuNmwtOTMuMiA5NS42Yy02LjQgNi40LTYuNCAxNi44IDAuNCAyMy4yIDYuNCA2LjQgMTYuOCA2IDIzLjItMC40bDY1LjItNjYuOHYyMjIuNGMwIDkuNiA3LjIgMTYuOCAxNi40IDE2Ljh6TTU2OCAzNzEuNmMtOS4yIDAtMTYuNCA3LjItMTYuNCAxNi40djI2Mi44YzAgNi44IDQgMTIuOCAxMCAxNS4yIDIgMC44IDQgMS4yIDYgMS4yIDQuNCAwIDguNC0xLjYgMTEuNi00LjhsOTMuMi05NS42YzYuNC02LjQgNi40LTE2LjgtMC40LTIzLjItNi40LTYuNC0xNi44LTYtMjMuMiAwLjRsLTY1LjIgNjYuOFYzODcuNmMwLjgtOC44LTYuNC0xNi0xNS42LTE2eiBtMCAwIi8+PHBhdGggZmlsbD0iIzRBOTE5QiIgZD0iTTcxMi44IDkzNC44Yy0xMjggMC0yODQuOC03Ni00MTQtMjA0LjgtNDQuNC00NC40LTgyLjgtOTItMTE0LjQtMTQyLjRsLTEuMi0yIDI1LjYtNDQuNCAzLjYgNmMzMiA1My4yIDcxLjYgMTA0IDExOC44IDE1MC44IDEzNS4yIDEzNS4yIDMwNiAyMTEuMiA0MjQuOCAxODguOGwyLTAuNCAzNi44IDM2LjgtNi40IDJjLTI0IDYuNC00OS4yIDkuNi03NS42IDkuNnpNMTkyLjQgNTg1LjJjMzEuMiA0OS4yIDY4LjggOTYgMTEyIDEzOS4yIDE1MS4yIDE1MS4yIDM0MC44IDIyOC44IDQ3NC40IDE5NC44bC0yNC0yNGMtNTguOCAxMC40LTEyOS42LTEuNi0yMDUuNi0zNC40LTc4LTM0LTE1NS42LTg4LjQtMjI0LjQtMTU3LjItNDUuNi00NS42LTg0LjgtOTUuMi0xMTYuNC0xNDYuOGwtMTYgMjguNHogbTEyMS42IDM0OS42Yy0yNi44IDAtNTEuNi0zLjItNzUuMi0xMGwtNi40LTIgMzYuOC0zNi44IDIgMC40YzQ2LjggOC44IDEwMy4yIDIuNCAxNjMuNi0xOC40bDItMC44IDQ0IDMwLjgtNi44IDIuOGMtNTYuOCAyMi44LTExMC44IDM0LTE2MCAzNHogbS02Ni40LTE1LjZjNjEuNiAxNS42IDEzNiA4IDIxNi0yMi40bC0yOC40LTIwYy02MCAyMC40LTExNi40IDI2LjgtMTYzLjYgMTguNGwtMjQgMjR6IG0tNjUuMiA2Yy0yMS4yIDAtNDAuOC04LjQtNTUuNi0yMy4yLTE0LjgtMTQuOC0yMy4yLTM0LjgtMjMuMi01NS42IDAtMjEuMiA4LjQtNDAuOCAyMy4yLTU1LjYgMTQuOC0xNC44IDM0LjgtMjMuMiA1NS42LTIzLjIgMjEuMiAwIDQwLjggOC40IDU1LjYgMjMuMiAxNC44IDE0LjggMjMuMiAzNC44IDIzLjIgNTUuNiAwIDIxLjItOC40IDQwLjgtMjMuMiA1NS42LTE0LjQgMTQuOC0zNC40IDIzLjItNTUuNiAyMy4yeiBtMC0xNDkuNmMtMTguOCAwLTM2LjggNy4yLTUwIDIwLjgtMTMuMiAxMy4yLTIwLjggMzEuMi0yMC44IDUwczcuMiAzNi44IDIwLjggNTBjMTMuMiAxMy4yIDMxLjIgMjAuOCA1MCAyMC44czM2LjgtNy4yIDUwLTIwLjhjMTMuMi0xMy4yIDIwLjgtMzEuMiAyMC44LTUwcy03LjItMzYuOC0yMC44LTUwYy0xMy4yLTEzLjYtMzAuOC0yMC44LTUwLTIwLjh6IG02NjIgMTQ5LjZjLTIwIDAtNDAuNC03LjYtNTUuNi0yMy4yLTMwLjgtMzAuOC0zMC44LTgwLjggMC0xMTEuNiAzMC44LTMwLjggODAuOC0zMC44IDExMS42IDAgMzAuOCAzMC44IDMwLjggODAuOCAwIDExMS42LTE1LjYgMTUuNi0zNiAyMy4yLTU2IDIzLjJ6TTc5NC40IDc5NmMtMjcuNiAyNy42LTI3LjYgNzIuNCAwIDEwMC40IDI3LjYgMjcuNiA3Mi40IDI3LjYgMTAwLjQgMCAyNy42LTI3LjYgMjcuNi03Mi40IDAtMTAwLjQtMjgtMjcuNi03Mi44LTI3LjYtMTAwLjQgMHpNMTc4IDg5NS4yYy0xMS4yIDAtMjEuNi00LjQtMjkuNi0xMi40cy0xMi40LTE4LjQtMTIuNC0yOS42YzAtMTEuMiA0LjQtMjEuNiAxMi40LTI5LjZzMTguNC0xMi40IDI5LjYtMTIuNGMxMS4yIDAgMjEuNiA0LjQgMjkuNiAxMi40czEyLjQgMTguNCAxMi40IDI5LjZjMCAxMS4yLTQuNCAyMS42LTEyLjQgMjkuNnMtMTguNCAxMi40LTI5LjYgMTIuNHogbTAtNzZjLTkuMiAwLTE3LjYgMy42LTI0IDEwLTYuNCA2LjQtMTAgMTQuOC0xMCAyNHMzLjYgMTcuNiAxMCAyNGM2LjQgNi40IDE0LjggMTAgMjQgMTBzMTcuNi0zLjYgMjQtMTBjNi40LTYuNCAxMC0xNC44IDEwLTI0cy0zLjYtMTcuNi0xMC0yNGMtNi40LTYuNC0xNC44LTEwLTI0LTEweiBtNjcwLjggNzZjLTExLjIgMC0yMS42LTQuNC0yOS42LTEyLjRzLTEyLjQtMTguNC0xMi40LTI5LjZjMC0xMS4yIDQuNC0yMS42IDEyLjQtMjkuNnMxOC40LTEyLjQgMjkuNi0xMi40YzExLjIgMCAyMS42IDQuNCAyOS42IDEyLjRzMTIuNCAxOC40IDEyLjQgMjkuNmMwIDExLjItNC40IDIxLjYtMTIuNCAyOS42LTcuNiA4LTE4LjQgMTIuNC0yOS42IDEyLjR6IG0wLTc2Yy05LjIgMC0xNy42IDMuNi0yNCAxMC02LjQgNi40LTEwIDE0LjgtMTAgMjRzMy42IDE3LjYgMTAgMjRjNi40IDYuNCAxNC44IDEwIDI0IDEwczE3LjYtMy42IDI0LTEwYzYuNC02LjQgMTAtMTQuOCAxMC0yNHMtMy42LTE3LjYtMTAtMjRjLTYuNC02LjQtMTQuOC0xMC0yNC0xMHogbS0yNzEuNiAzMC40bC00MC40LTI4LjQgNS4yLTMuMmM1NC40LTMyIDEwNi03Mi40IDE1NC0xMjAuNCAxMzUuMi0xMzUuMiAyMTEuMi0zMDYgMTg4LjgtNDI0LjhsLTAuNC0yIDM2LjgtMzYuOCAyIDYuNGMzOS4yIDEzNi44LTM5LjIgMzMzLjItMTk0LjggNDg5LjItNDYgNDYtOTYgODYtMTQ4LjggMTE4LjRsLTIuNCAxLjZ6IG0tMjUuNi0yNy42bDI2IDE4YzUxLjItMzEuNiAxMDAtNzAuOCAxNDUuMi0xMTUuNiAxNTEuMi0xNTEuMiAyMjguOC0zNDAuOCAxOTQuOC00NzQuNGwtMjQgMjRjMjEuNiAxMjEuMi01NS4yIDI5My4yLTE5MS42IDQyOS42LTQ3LjIgNDYuOC05Ny42IDg2LjQtMTUwLjQgMTE4LjR6IG0zNjkuNi0yNS42bC0zNi44LTM2LjggMC40LTJjOC44LTQ3LjIgMi40LTEwNC40LTE4LjgtMTY1LjJsLTAuOC0yIDMwLTQ1LjYgMi44IDcuMmMzNS42IDg4LjggNDQgMTcxLjIgMjQuOCAyMzhsLTEuNiA2LjR6IG0tMjgtMzkuMmwyNCAyNGMxNS42LTYxLjYgNy4yLTEzOC44LTIzLjYtMjE5LjJsLTE5LjIgMjkuNmMyMC44IDYwLjQgMjcuMiAxMTcuNiAxOC44IDE2NS42eiBtLTc4Ny42IDM5LjJsLTItNi40Yy0zOS4yLTEzNi44IDM5LjItMzMzLjIgMTk1LjItNDg5LjIgNDMuNi00My42IDkwLjQtODEuMiAxNDAtMTEyLjhsMi0xLjIgNDMuMiAyNi40LTUuNiAzLjZjLTUyIDMxLjItMTAxLjYgNzAuNC0xNDcuNiAxMTYtMTM1LjIgMTM1LjItMjExLjIgMzA2LTE4OC44IDQyNC44bDAuNCAyLTM2LjggMzYuOHogbTMzNS4yLTYwMGMtNDggMzAuOC05NCA2OC0xMzYuNCAxMTAuNC0xNTEuMiAxNTEuMi0yMjguOCAzNDAuOC0xOTQuOCA0NzQuNGwyNC0yNGMtMTAuNC01OC44IDEuNi0xMjkuNiAzNC40LTIwNS42IDM0LTc4IDg4LjQtMTU1LjYgMTU3LjItMjI0LjQgNDQuOC00NC44IDkyLjgtODMuMiAxNDMuMi0xMTQuNGwtMjcuNi0xNi40ek01NjggNjcwLjhjLTIuOCAwLTUuMi0wLjQtNy42LTEuNi03LjYtMy4yLTEyLjgtMTAuNC0xMi44LTE4LjhWMzg4YzAtMTEuMiA5LjItMjAuNCAyMC40LTIwLjRzMjAuNCA5LjIgMjAuNCAyMC40djIxMi44bDU4LjQtNjBjNC00IDguOC02IDE0LjQtNnMxMC40IDIgMTQuNCA2YzQgMy42IDYgOC44IDYgMTQuNHMtMiAxMC40LTYgMTQuNGwtOTMuMiA5NS42Yy0zLjYgMy42LTguOCA1LjYtMTQuNCA1LjZ6IG0wLTI5NS4yYy02LjggMC0xMi40IDUuNi0xMi40IDEyLjR2MjYyLjhjMCA1LjIgMy4yIDkuNiA3LjYgMTEuNiA0LjggMiAxMCAwLjggMTMuNi0yLjhsOTMuMi05NS42YzIuNC0yLjQgMy42LTUuNiAzLjYtOC44IDAtMy4yLTEuMi02LjQtMy42LTguOC0yLjQtMi40LTUuNi0zLjYtOC44LTMuNi0zLjIgMC02LjQgMS4yLTguOCAzLjZsLTcyIDc0VjM4OGMwLTcuMi01LjYtMTIuNC0xMi40LTEyLjR6TTQ1OC44IDY2OGMtMTEuMiAwLTIwLjQtOS4yLTIwLjQtMjAuNHYtMjEyLjhsLTU4LjQgNjBjLTQgNC04LjggNi0xNC40IDZzLTEwLjQtMi0xNC40LTZjLTQtMy42LTYtOC44LTYtMTQuNHMyLTEwLjQgNi0xNC40bDkzLjItOTUuNmM1LjYtNiAxNC44LTcuNiAyMi40LTQuOCA3LjYgMy4yIDEyLjggMTAuNCAxMi44IDE4Ljh2MjYyLjhjLTAuNCAxMS42LTkuNiAyMC44LTIwLjggMjAuOHogbS0xMi40LTI1Mi44djIzMi40YzAgNi44IDUuNiAxMi40IDEyLjQgMTIuNHMxMi40LTUuNiAxMi40LTEyLjRWMzg0LjhjMC01LjItMy4yLTkuNi03LjYtMTEuNi00LjgtMi0xMC0wLjgtMTMuNiAyLjhsLTkzLjIgOTZjLTIuNCAyLjQtMy42IDUuNi0zLjYgOC44IDAgMy4yIDEuMiA2LjQgMy42IDguOCAyLjQgMi40IDUuNiAzLjYgOC44IDMuNiAzLjIgMCA2LjQtMS4yIDguOC0zLjZsNzItNzQuNHogbTM3MC40IDcybC0zLjItNS42Yy0zMS42LTUyLjQtNzEuMi0xMDIuNC0xMTcuNi0xNDguOEM1NjAuNCAxOTcuNiAzOTAgMTIxLjYgMjcxLjIgMTQ0bC0yIDAuNC0zNi44LTM2LjggNi40LTJDMzc1LjYgNjYuNCA1NzIgMTQ0LjggNzI4IDMwMC40YzQ0LjQgNDQuNCA4Mi44IDkyLjQgMTE0LjQgMTQyLjRsMS4yIDItMjYuOCA0Mi40ek0zMTUuMiAxMzJjNDguOCAwIDEwNCAxMi44IDE2MiAzOCA3OCAzNCAxNTUuNiA4OC40IDIyNC40IDE1Ny4yIDQ1LjIgNDUuMiA4NCA5NCAxMTUuMiAxNDQuOGwxNy42LTI2LjhjLTMxLjItNDkuMi02OC44LTk2LTExMi0xMzkuMi0xNTEuMi0xNTAuOC0zNDAuOC0yMjguNC00NzQuOC0xOTQuNGwyNCAyNGMxNC0yLjQgMjguNC0zLjYgNDMuNi0zLjZ6IG0tMTg0IDM1Mi44bC0zLjItNy42Yy0zNC44LTg4LTQzLjItMTY5LjYtMjQtMjM2LjRsMi02LjQgMzYuOCAzNi44LTAuNCAyYy04LjggNDYtMi44IDEwMS4yIDE3LjIgMTYwLjRsMC40IDEuNi0yOC44IDQ5LjZ6IG0tMjEuNi0yMzUuMmMtMTUuNiA2MC44LTcuNiAxMzcuMiAyMi44IDIxNi44bDE4LjQtMzJjLTE5LjYtNTguOC0yNS42LTExNC0xNy4yLTE2MC40bC0yNC0yNC40eiBtNzM0LjggMTRjLTIxLjIgMC00MC44LTguNC01NS42LTIzLjItMTQuOC0xNC44LTIzLjItMzQuOC0yMy4yLTU1LjYgMC0yMS4yIDguNC00MC44IDIzLjItNTUuNiAxNC44LTE0LjggMzQuOC0yMy4yIDU1LjYtMjMuMiAyMS4yIDAgNDAuOCA4LjQgNTUuNiAyMy4yIDE0LjggMTQuOCAyMy4yIDM0LjggMjMuMiA1NS42IDAgMjEuMi04LjQgNDAuOC0yMy4yIDU1LjYtMTQuOCAxNC44LTM0LjggMjMuMi01NS42IDIzLjJ6IG0wLTE1MGMtMTguOCAwLTM2LjggNy4yLTUwIDIwLjgtMTMuMiAxMy4yLTIwLjggMzEuMi0yMC44IDUwczcuMiAzNi44IDIwLjggNTBjMTMuMiAxMy4yIDMxLjIgMjAuOCA1MCAyMC44czM2LjgtNy4yIDUwLTIwLjhjMTMuMi0xMy4yIDIwLjgtMzEuMiAyMC44LTUwcy03LjItMzYuOC0yMC44LTUwYy0xMy4yLTEzLjItMzEuMi0yMC44LTUwLTIwLjh6TTE4Mi40IDI2My42Yy0yMS4yIDAtNDAuOC04LjQtNTUuNi0yMy4yLTE0LjgtMTQuOC0yMy4yLTM0LjgtMjMuMi01NS42IDAtMjEuMiA4LjQtNDAuOCAyMy4yLTU1LjYgMTQuOC0xNC44IDM0LjgtMjMuMiA1NS42LTIzLjIgMjEuMiAwIDQwLjggOC40IDU1LjYgMjMuMiAxNC44IDE0LjggMjMuMiAzNC44IDIzLjIgNTUuNiAwIDIxLjItOC40IDQwLjgtMjMuMiA1NS42LTE0LjQgMTQuOC0zNC40IDIzLjItNTUuNiAyMy4yeiBtMC0xNTBjLTE4LjggMC0zNi44IDcuMi01MCAyMC44LTEzLjIgMTMuMi0yMC44IDMxLjItMjAuOCA1MHM3LjIgMzYuOCAyMC44IDUwYzEzLjIgMTMuMiAzMS4yIDIwLjggNTAgMjAuOHMzNi44LTcuMiA1MC0yMC44YzEzLjItMTMuMiAyMC44LTMxLjIgMjAuOC01MHMtNy4yLTM2LjgtMjAuOC01MGMtMTMuMi0xMy4yLTMwLjgtMjAuOC01MC0yMC44eiBtNjY2LjQgMTEwLjhjLTExLjIgMC0yMS42LTQuNC0yOS42LTEyLjRzLTEyLjQtMTguNC0xMi40LTI5LjZjMC0xMS4yIDQuNC0yMS42IDEyLjQtMjkuNiAxNi40LTE2LjQgNDIuOC0xNi40IDU5LjIgMCA4IDggMTIuNCAxOC40IDEyLjQgMjkuNiAwIDExLjItNC40IDIxLjYtMTIuNCAyOS42LTcuNiA4LTE4LjQgMTIuNC0yOS42IDEyLjR6IG0tMjQtNjZjLTYuNCA2LjQtMTAgMTQuOC0xMCAyNHMzLjYgMTcuNiAxMCAyNGM2LjQgNi40IDE0LjggMTAgMjQgMTBzMTcuNi0zLjYgMjQtMTBjNi40LTYuNCAxMC0xNC44IDEwLTI0cy0zLjYtMTcuNi0xMC0yNGMtMTMuMi0xMy4yLTM0LjgtMTMuMi00OCAwek0xNzggMjI0LjRjLTExLjIgMC0yMS42LTQuNC0yOS42LTEyLjRTMTM2IDE5My42IDEzNiAxODIuNGMwLTExLjIgNC40LTIxLjYgMTIuNC0yOS42IDE2LjQtMTYuNCA0Mi44LTE2LjQgNTkuMiAwIDggOCAxMi40IDE4LjQgMTIuNCAyOS42IDAgMTEuMi00LjQgMjEuNi0xMi40IDI5LjZzLTE4LjQgMTIuNC0yOS42IDEyLjR6IG0wLTc2Yy04LjggMC0xNy4yIDMuMi0yNCAxMC02LjQgNi40LTEwIDE0LjgtMTAgMjRzMy42IDE3LjYgMTAgMjRjNi40IDYuNCAxNC44IDEwIDI0IDEwczE3LjYtMy42IDI0LTEwYzYuNC02LjQgMTAtMTQuOCAxMC0yNHMtMy42LTE3LjYtMTAtMjRjLTYuNC02LjgtMTUuMi0xMC0yNC0xMHpNNTkyLjggMTYwbC00OC40LTI5LjYgNy42LTIuOGM4OS42LTM1LjYgMTcyLjQtNDQgMjQwLTI0LjhsNi40IDItMzcuMiAzNy4yLTItMC40Yy00Ny4yLTguOC0xMDQtMi44LTE2NC40IDE4bC0yIDAuNHogbS0zMC40LTI4LjRsMzEuNiAxOS4yYzYwLjQtMjAuNCAxMTcuMi0yNi40IDE2NC44LTE4bDI0LjQtMjQuNGMtNjIuNC0xNS42LTE0MC03LjItMjIwLjggMjMuMnoiLz48L3N2Zz4=" vertex="1" parent="1">
          <mxGeometry x="408" y="792" width="71" height="71" as="geometry" />
        </mxCell>
        <mxCell id="BNeBFmw1EoEEX6mTBFbo-14" value="&lt;font color=&quot;#4a919b&quot;&gt;&lt;span style=&quot;font-size: 20px;&quot;&gt;网关&lt;/span&gt;&lt;/font&gt;" style="text;html=1;strokeColor=none;fillColor=none;align=center;verticalAlign=middle;whiteSpace=wrap;rounded=0;" vertex="1" parent="1">
          <mxGeometry x="485" y="810" width="57" height="30" as="geometry" />
        </mxCell>
      </root>
    </mxGraphModel>
  </diagram>
</mxfile>
